<?xml version="1.0" encoding="utf-8" standalone="no"?>
<!DOCTYPE svg PUBLIC "-//W3C//DTD SVG 1.1//EN"
  "http://www.w3.org/Graphics/SVG/1.1/DTD/svg11.dtd">
<svg style="width:100%;height:auto;display:block;" xmlns:xlink="http://www.w3.org/1999/xlink" width="566.381177pt" height="292.43671pt" viewBox="0 0 566.381177 292.43671" xmlns="http://www.w3.org/2000/svg" version="1.1">
 <metadata>
  <rdf:RDF xmlns:dc="http://purl.org/dc/elements/1.1/" xmlns:cc="http://creativecommons.org/ns#" xmlns:rdf="http://www.w3.org/1999/02/22-rdf-syntax-ns#">
   <cc:Work>
    <dc:type rdf:resource="http://purl.org/dc/dcmitype/StillImage"/>
    <dc:date>2026-07-05T18:16:59.348863</dc:date>
    <dc:format>image/svg+xml</dc:format>
    <dc:creator>
     <cc:Agent>
      <dc:title>Matplotlib v3.11.0, https://matplotlib.org/</dc:title>
     </cc:Agent>
    </dc:creator>
   </cc:Work>
  </rdf:RDF>
 </metadata>
 <defs>
  <style type="text/css">*{stroke-linejoin: round; stroke-linecap: butt}</style>
 </defs>
 <g id="figure_1">
  <g id="patch_1">
   <path d="M 0 292.43671 
L 566.381177 292.43671 
L 566.381177 0 
L 0 0 
z
" style="fill: #161b22"/>
  </g>
  <g id="axes_1">
   <g id="patch_2">
    <path d="M 50.968042 133.4 
L 554.371111 133.4 
L 554.371111 24.618 
L 50.968042 24.618 
z
" style="fill: #161b22"/>
   </g>
   <g id="FillBetweenPolyCollection_1">
    <defs>
     <path id="m0f124964b4" d="M 73.85 -262.874074 
L 73.85 -262.874074 
L 75.823356 -262.874074 
L 75.823356 -262.874074 
L 84.882853 -262.874074 
L 84.882853 -254.082433 
L 88.381075 -254.082433 
L 88.381075 -252.965876 
L 89.457451 -252.965876 
L 89.457451 -251.370852 
L 90.892618 -251.370852 
L 90.892618 -249.722835 
L 92.417484 -249.722835 
L 92.417484 -248.083299 
L 94.83933 -248.083299 
L 94.83933 -246.465268 
L 98.87574 -246.465268 
L 98.87574 -244.870857 
L 100.131512 -244.870857 
L 100.131512 -243.299221 
L 100.580001 -243.299221 
L 100.580001 -241.748741 
L 101.476981 -241.748741 
L 101.476981 -241.748741 
L 101.566679 -241.748741 
L 101.566679 -240.188385 
L 101.925471 -240.188385 
L 101.925471 -238.647889 
L 105.333995 -238.647889 
L 105.333995 -237.125385 
L 105.423693 -237.125385 
L 105.423693 -235.619314 
L 105.872183 -235.619314 
L 105.872183 -234.128362 
L 107.755841 -234.128362 
L 107.755841 -232.651412 
L 108.114633 -232.651412 
L 108.114633 -231.187509 
L 112.599532 -231.187509 
L 112.599532 -229.735827 
L 113.496512 -229.735827 
L 113.496512 -228.295651 
L 114.214096 -228.295651 
L 114.214096 -226.866356 
L 114.662586 -226.866356 
L 114.662586 -225.447394 
L 116.635942 -225.447394 
L 116.635942 -224.03828 
L 117.263828 -224.03828 
L 117.263828 -222.638587 
L 118.429902 -222.638587 
L 118.429902 -221.247935 
L 119.506278 -221.247935 
L 119.506278 -219.865987 
L 120.941446 -219.865987 
L 120.941446 -218.49244 
L 122.914801 -218.49244 
L 122.914801 -217.127027 
L 126.502721 -217.127027 
L 126.502721 -215.769507 
L 130.000943 -215.769507 
L 130.000943 -214.419663 
L 130.449433 -214.419663 
L 130.449433 -213.077306 
L 133.768258 -213.077306 
L 133.768258 -211.742263 
L 138.970742 -211.742263 
L 138.970742 -210.414381 
L 139.150138 -210.414381 
L 139.150138 -209.093526 
L 139.778024 -209.093526 
L 139.778024 -207.779577 
L 141.661682 -207.779577 
L 141.661682 -206.472432 
L 143.186547 -206.472432 
L 143.186547 -205.171997 
L 143.365943 -205.171997 
L 143.365943 -203.878196 
L 145.159903 -203.878196 
L 145.159903 -202.590962 
L 148.030239 -202.590962 
L 148.030239 -201.310241 
L 154.936984 -201.310241 
L 154.936984 -200.03599 
L 155.744266 -200.03599 
L 155.744266 -198.768178 
L 155.833964 -198.768178 
L 155.833964 -197.506781 
L 155.923662 -197.506781 
L 155.923662 -196.251788 
L 156.91034 -196.251788 
L 156.91034 -195.003199 
L 157.089736 -195.003199 
L 157.089736 -193.761022 
L 158.076414 -193.761022 
L 158.076414 -192.525276 
L 160.318864 -192.525276 
L 160.318864 -191.295991 
L 160.408562 -191.295991 
L 160.408562 -190.073207 
L 160.49826 -190.073207 
L 160.49826 -188.856975 
L 164.265575 -188.856975 
L 164.265575 -187.647357 
L 165.969837 -187.647357 
L 165.969837 -186.444427 
L 175.746918 -186.444427 
L 175.746918 -185.248273 
L 177.092388 -185.248273 
L 177.092388 -184.058993 
L 177.45118 -184.058993 
L 177.45118 -182.876702 
L 178.617254 -182.876702 
L 178.617254 -181.701528 
L 179.962724 -181.701528 
L 179.962724 -180.533617 
L 185.254906 -180.533617 
L 185.254906 -179.373131 
L 186.510677 -179.373131 
L 186.510677 -178.220252 
L 188.394335 -178.220252 
L 188.394335 -177.075185 
L 202.746014 -177.075185 
L 202.746014 -175.938156 
L 212.881887 -175.938156 
L 212.881887 -174.80942 
L 229.565713 -174.80942 
L 229.565713 -174.80942 
L 239.342794 -174.80942 
L 239.342794 -173.631458 
L 244.00709 -173.631458 
L 244.00709 -173.631458 
L 250.285949 -173.631458 
L 250.285949 -173.631458 
L 251.990211 -173.631458 
L 251.990211 -172.324302 
L 254.501755 -172.324302 
L 254.501755 -172.324302 
L 254.591453 -172.324302 
L 254.591453 -172.324302 
L 258.807259 -172.324302 
L 258.807259 -172.324302 
L 265.175816 -172.324302 
L 265.175816 -170.739157 
L 273.607427 -170.739157 
L 273.607427 -169.186977 
L 292.713099 -169.186977 
L 292.713099 -167.668425 
L 295.583435 -167.668425 
L 295.583435 -167.668425 
L 310.024812 -167.668425 
L 310.024812 -167.668425 
L 322.223739 -167.668425 
L 322.223739 -167.668425 
L 324.286792 -167.668425 
L 324.286792 -167.668425 
L 325.811658 -167.668425 
L 325.811658 -165.371738 
L 326.798336 -165.371738 
L 326.798336 -165.371738 
L 330.117162 -165.371738 
L 330.117162 -165.371738 
L 348.774344 -165.371738 
L 348.774344 -165.371738 
L 361.870251 -165.371738 
L 361.870251 -165.371738 
L 391.291192 -165.371738 
L 391.291192 -165.371738 
L 415.330254 -165.371738 
L 415.330254 -165.371738 
L 471.301801 -165.371738 
L 471.301801 -165.371738 
L 500.633044 -165.371738 
L 500.633044 -165.371738 
L 531.489153 -165.371738 
L 531.489153 -165.371738 
L 531.489153 -185.44328 
L 531.489153 -185.44328 
L 531.489153 -185.44328 
L 500.633044 -185.44328 
L 500.633044 -185.44328 
L 471.301801 -185.44328 
L 471.301801 -185.44328 
L 415.330254 -185.44328 
L 415.330254 -185.44328 
L 391.291192 -185.44328 
L 391.291192 -185.44328 
L 361.870251 -185.44328 
L 361.870251 -185.44328 
L 348.774344 -185.44328 
L 348.774344 -185.44328 
L 330.117162 -185.44328 
L 330.117162 -185.44328 
L 326.798336 -185.44328 
L 326.798336 -185.44328 
L 325.811658 -185.44328 
L 325.811658 -187.663772 
L 324.286792 -187.663772 
L 324.286792 -187.663772 
L 322.223739 -187.663772 
L 322.223739 -187.663772 
L 310.024812 -187.663772 
L 310.024812 -187.663772 
L 295.583435 -187.663772 
L 295.583435 -187.663772 
L 292.713099 -187.663772 
L 292.713099 -189.451516 
L 273.607427 -189.451516 
L 273.607427 -191.212971 
L 265.175816 -191.212971 
L 265.175816 -192.948913 
L 258.807259 -192.948913 
L 258.807259 -192.948913 
L 254.591453 -192.948913 
L 254.591453 -192.948913 
L 254.501755 -192.948913 
L 254.501755 -192.948913 
L 251.990211 -192.948913 
L 251.990211 -194.481315 
L 250.285949 -194.481315 
L 250.285949 -194.481315 
L 244.00709 -194.481315 
L 244.00709 -194.481315 
L 239.342794 -194.481315 
L 239.342794 -195.902411 
L 229.565713 -195.902411 
L 229.565713 -195.902411 
L 212.881887 -195.902411 
L 212.881887 -197.271204 
L 202.746014 -197.271204 
L 202.746014 -198.632324 
L 188.394335 -198.632324 
L 188.394335 -199.98599 
L 186.510677 -199.98599 
L 186.510677 -201.332396 
L 185.254906 -201.332396 
L 185.254906 -202.671717 
L 179.962724 -202.671717 
L 179.962724 -204.004108 
L 178.617254 -204.004108 
L 178.617254 -205.329707 
L 177.45118 -205.329707 
L 177.45118 -206.648636 
L 177.092388 -206.648636 
L 177.092388 -207.961003 
L 175.746918 -207.961003 
L 175.746918 -209.266901 
L 165.969837 -209.266901 
L 165.969837 -210.566412 
L 164.265575 -210.566412 
L 164.265575 -211.859604 
L 160.49826 -211.859604 
L 160.49826 -213.146536 
L 160.408562 -213.146536 
L 160.408562 -214.427253 
L 160.318864 -214.427253 
L 160.318864 -215.701794 
L 158.076414 -215.701794 
L 158.076414 -216.970182 
L 157.089736 -216.970182 
L 157.089736 -218.232436 
L 156.91034 -218.232436 
L 156.91034 -219.488561 
L 155.923662 -219.488561 
L 155.923662 -220.738554 
L 155.833964 -220.738554 
L 155.833964 -221.982402 
L 155.744266 -221.982402 
L 155.744266 -223.220082 
L 154.936984 -223.220082 
L 154.936984 -224.451562 
L 148.030239 -224.451562 
L 148.030239 -225.676797 
L 145.159903 -225.676797 
L 145.159903 -226.895734 
L 143.365943 -226.895734 
L 143.365943 -228.108308 
L 143.186547 -228.108308 
L 143.186547 -229.314443 
L 141.661682 -229.314443 
L 141.661682 -230.51405 
L 139.778024 -230.51405 
L 139.778024 -231.707027 
L 139.150138 -231.707027 
L 139.150138 -232.893258 
L 138.970742 -232.893258 
L 138.970742 -234.072613 
L 133.768258 -234.072613 
L 133.768258 -235.244943 
L 130.449433 -235.244943 
L 130.449433 -236.410085 
L 130.000943 -236.410085 
L 130.000943 -237.567853 
L 126.502721 -237.567853 
L 126.502721 -238.71804 
L 122.914801 -238.71804 
L 122.914801 -239.860417 
L 120.941446 -239.860417 
L 120.941446 -240.994724 
L 119.506278 -240.994724 
L 119.506278 -242.120674 
L 118.429902 -242.120674 
L 118.429902 -243.237943 
L 117.263828 -243.237943 
L 117.263828 -244.346168 
L 116.635942 -244.346168 
L 116.635942 -245.444939 
L 114.662586 -245.444939 
L 114.662586 -246.533796 
L 114.214096 -246.533796 
L 114.214096 -247.612212 
L 113.496512 -247.612212 
L 113.496512 -248.67959 
L 112.599532 -248.67959 
L 112.599532 -249.735243 
L 108.114633 -249.735243 
L 108.114633 -250.77838 
L 107.755841 -250.77838 
L 107.755841 -251.808078 
L 105.872183 -251.808078 
L 105.872183 -252.823255 
L 105.423693 -252.823255 
L 105.423693 -253.822631 
L 105.333995 -253.822631 
L 105.333995 -254.804667 
L 101.925471 -254.804667 
L 101.925471 -255.767492 
L 101.566679 -255.767492 
L 101.566679 -256.708791 
L 101.476981 -256.708791 
L 101.476981 -256.708791 
L 100.580001 -256.708791 
L 100.580001 -257.617178 
L 100.131512 -257.617178 
L 100.131512 -258.498278 
L 98.87574 -258.498278 
L 98.87574 -259.347279 
L 94.83933 -259.347279 
L 94.83933 -260.157535 
L 92.417484 -260.157535 
L 92.417484 -260.91939 
L 90.892618 -260.91939 
L 90.892618 -261.617787 
L 89.457451 -261.617787 
L 89.457451 -262.226663 
L 88.381075 -262.226663 
L 88.381075 -262.692436 
L 84.882853 -262.692436 
L 84.882853 -262.874074 
L 75.823356 -262.874074 
L 75.823356 -262.874074 
L 73.85 -262.874074 
z
" style="stroke: #3987e5; stroke-opacity: 0.15"/>
    </defs>
    <g clip-path="url(#p4adbb479b5)">
     <use xlink:href="#m0f124964b4" x="0" y="292.43671" style="fill: #3987e5; fill-opacity: 0.15; stroke: #3987e5; stroke-opacity: 0.15"/>
    </g>
   </g>
   <g id="FillBetweenPolyCollection_2">
    <defs>
     <path id="m9890b23b79" d="M 73.85 -262.874074 
L 73.85 -262.874074 
L 76.720336 -262.874074 
L 76.720336 -236.938184 
L 88.829565 -236.938184 
L 88.829565 -233.638672 
L 94.032048 -233.638672 
L 94.032048 -229.098762 
L 105.692787 -229.098762 
L 105.692787 -224.479143 
L 111.79225 -224.479143 
L 111.79225 -219.943933 
L 118.788694 -219.943933 
L 118.788694 -215.525326 
L 133.23007 -215.525326 
L 133.23007 -211.226855 
L 139.329534 -211.226855 
L 139.329534 -207.045004 
L 141.571984 -207.045004 
L 141.571984 -202.975007 
L 142.379266 -202.975007 
L 142.379266 -199.012576 
L 143.814433 -199.012576 
L 143.814433 -195.154427 
L 145.698091 -195.154427 
L 145.698091 -191.398421 
L 155.833964 -191.398421 
L 155.833964 -187.743596 
L 163.727388 -187.743596 
L 163.727388 -184.190196 
L 165.790441 -184.190196 
L 165.790441 -180.739733 
L 187.856147 -180.739733 
L 187.856147 -177.39511 
L 189.022221 -177.39511 
L 189.022221 -174.160839 
L 202.02843 -174.160839 
L 202.02843 -174.160839 
L 216.559505 -174.160839 
L 216.559505 -170.559332 
L 217.725578 -170.559332 
L 217.725578 -167.161959 
L 221.044404 -167.161959 
L 221.044404 -163.981346 
L 248.0435 -163.981346 
L 248.0435 -163.981346 
L 283.384508 -163.981346 
L 283.384508 -163.981346 
L 288.048804 -163.981346 
L 288.048804 -163.981346 
L 291.905817 -163.981346 
L 291.905817 -163.981346 
L 341.419109 -163.981346 
L 341.419109 -163.981346 
L 367.521224 -163.981346 
L 367.521224 -163.981346 
L 367.521224 -199.066596 
L 367.521224 -199.066596 
L 367.521224 -199.066596 
L 341.419109 -199.066596 
L 341.419109 -199.066596 
L 291.905817 -199.066596 
L 291.905817 -199.066596 
L 288.048804 -199.066596 
L 288.048804 -199.066596 
L 283.384508 -199.066596 
L 283.384508 -199.066596 
L 248.0435 -199.066596 
L 248.0435 -199.066596 
L 221.044404 -199.066596 
L 221.044404 -203.800078 
L 217.725578 -203.800078 
L 217.725578 -208.361902 
L 216.559505 -208.361902 
L 216.559505 -212.765948 
L 202.02843 -212.765948 
L 202.02843 -212.765948 
L 189.022221 -212.765948 
L 189.022221 -216.768246 
L 187.856147 -216.768246 
L 187.856147 -220.668036 
L 165.790441 -220.668036 
L 165.790441 -224.468234 
L 163.727388 -224.468234 
L 163.727388 -228.17021 
L 155.833964 -228.17021 
L 155.833964 -231.773885 
L 145.698091 -231.773885 
L 145.698091 -235.277735 
L 143.814433 -235.277735 
L 143.814433 -238.678671 
L 142.379266 -238.678671 
L 142.379266 -241.971797 
L 141.571984 -241.971797 
L 141.571984 -245.14998 
L 139.329534 -245.14998 
L 139.329534 -248.203149 
L 133.23007 -248.203149 
L 133.23007 -251.117118 
L 118.788694 -251.117118 
L 118.788694 -253.871571 
L 111.79225 -253.871571 
L 111.79225 -256.436331 
L 105.692787 -256.436331 
L 105.692787 -258.763808 
L 94.032048 -258.763808 
L 94.032048 -260.771309 
L 88.829565 -260.771309 
L 88.829565 -262.289109 
L 76.720336 -262.289109 
L 76.720336 -262.874074 
L 73.85 -262.874074 
z
" style="stroke: #d95926; stroke-opacity: 0.15"/>
    </defs>
    <g clip-path="url(#p4adbb479b5)">
     <use xlink:href="#m9890b23b79" x="0" y="292.43671" style="fill: #d95926; fill-opacity: 0.15; stroke: #d95926; stroke-opacity: 0.15"/>
    </g>
   </g>
   <g id="matplotlib.axis_1">
    <g id="xtick_1">
     <g id="line2d_1">
      <path d="M 73.85 133.4 
L 73.85 24.618 
" clip-path="url(#p4adbb479b5)" style="fill: none; stroke: #21262d; stroke-opacity: 0.6; stroke-width: 0.6; stroke-linecap: square"/>
     </g>
     <g id="line2d_2">
      <defs>
       <path id="m9f2aa02283" d="M 0 0 
L 0 3.5 
" style="stroke: #8b949e; stroke-width: 0.8"/>
      </defs>
      <g>
       <use xlink:href="#m9f2aa02283" x="73.85" y="133.4" style="fill: #8b949e; stroke: #8b949e; stroke-width: 0.8"/>
      </g>
     </g>
     <g id="text_1">
      <!-- 0 -->
      <g style="fill: #8b949e" transform="translate(70.189844 150.78) scale(0.1 -0.1)">
       <defs>
        <path id="PlusJakartaSans-Regular-1df" d="M 2349 -77 
Q 1786 -77 1360 233 
Q 934 544 697 1097 
Q 461 1651 461 2387 
Q 461 3123 697 3676 
Q 934 4230 1356 4537 
Q 1779 4845 2342 4845 
Q 2906 4845 3328 4537 
Q 3750 4230 3987 3676 
Q 4224 3123 4224 2387 
Q 4224 1651 3990 1094 
Q 3757 538 3334 230 
Q 2912 -77 2349 -77 
z
M 2349 403 
Q 2758 403 3065 652 
Q 3373 902 3545 1347 
Q 3718 1792 3718 2387 
Q 3718 2982 3545 3427 
Q 3373 3872 3065 4118 
Q 2758 4365 2342 4365 
Q 1933 4365 1625 4118 
Q 1318 3872 1145 3427 
Q 973 2982 973 2387 
Q 973 1798 1145 1350 
Q 1318 902 1628 652 
Q 1939 403 2349 403 
z
" transform="scale(0.015625)"/>
       </defs>
       <use xlink:href="#PlusJakartaSans-Regular-1df"/>
      </g>
     </g>
    </g>
    <g id="xtick_2">
     <g id="line2d_3">
      <path d="M 142.104565 133.4 
L 142.104565 24.618 
" clip-path="url(#p4adbb479b5)" style="fill: none; stroke: #21262d; stroke-opacity: 0.6; stroke-width: 0.6; stroke-linecap: square"/>
     </g>
     <g id="line2d_4">
      <g>
       <use xlink:href="#m9f2aa02283" x="142.104565" y="133.4" style="fill: #8b949e; stroke: #8b949e; stroke-width: 0.8"/>
      </g>
     </g>
     <g id="text_2">
      <!-- 25 -->
      <g style="fill: #8b949e" transform="translate(136.024878 150.78) scale(0.1 -0.1)">
       <defs>
        <path id="PlusJakartaSans-Regular-1e1" d="M 371 0 
L 371 320 
L 1702 1786 
Q 2093 2214 2339 2496 
Q 2586 2778 2707 3008 
Q 2829 3238 2829 3507 
Q 2829 3936 2579 4166 
Q 2330 4397 1914 4397 
Q 1485 4397 1193 4153 
Q 902 3910 800 3475 
L 333 3578 
Q 416 3968 633 4249 
Q 851 4531 1177 4688 
Q 1504 4845 1907 4845 
Q 2336 4845 2656 4672 
Q 2976 4499 3158 4198 
Q 3341 3898 3341 3507 
Q 3341 3238 3229 2988 
Q 3117 2739 2893 2451 
Q 2669 2163 2317 1779 
L 1107 448 
L 3469 448 
L 3469 0 
L 371 0 
z
" transform="scale(0.015625)"/>
        <path id="PlusJakartaSans-Regular-1e4" d="M 1933 -77 
Q 1562 -77 1245 51 
Q 928 179 691 416 
Q 454 653 333 979 
L 723 1171 
Q 870 800 1206 585 
Q 1542 371 1933 371 
Q 2246 371 2492 518 
Q 2739 666 2880 918 
Q 3021 1171 3021 1485 
Q 3021 1811 2877 2060 
Q 2733 2310 2489 2454 
Q 2246 2598 1939 2598 
Q 1626 2598 1360 2454 
Q 1094 2310 973 2106 
L 570 2182 
L 928 4768 
L 3341 4768 
L 3341 4320 
L 1114 4320 
L 1312 4493 
L 1024 2458 
L 826 2547 
Q 1050 2822 1350 2940 
Q 1651 3059 1965 3059 
Q 2426 3059 2778 2844 
Q 3130 2630 3331 2275 
Q 3533 1920 3533 1485 
Q 3533 1043 3325 688 
Q 3117 333 2755 128 
Q 2394 -77 1933 -77 
z
" transform="scale(0.015625)"/>
       </defs>
       <use xlink:href="#PlusJakartaSans-Regular-1e1"/>
       <use xlink:href="#PlusJakartaSans-Regular-1e4" transform="translate(60 0)"/>
      </g>
     </g>
    </g>
    <g id="xtick_3">
     <g id="line2d_5">
      <path d="M 210.359131 133.4 
L 210.359131 24.618 
" clip-path="url(#p4adbb479b5)" style="fill: none; stroke: #21262d; stroke-opacity: 0.6; stroke-width: 0.6; stroke-linecap: square"/>
     </g>
     <g id="line2d_6">
      <g>
       <use xlink:href="#m9f2aa02283" x="210.359131" y="133.4" style="fill: #8b949e; stroke: #8b949e; stroke-width: 0.8"/>
      </g>
     </g>
     <g id="text_3">
      <!-- 50 -->
      <g style="fill: #8b949e" transform="translate(203.619287 150.78) scale(0.1 -0.1)">
       <use xlink:href="#PlusJakartaSans-Regular-1e4"/>
       <use xlink:href="#PlusJakartaSans-Regular-1df" transform="translate(61.59375 0)"/>
      </g>
     </g>
    </g>
    <g id="xtick_4">
     <g id="line2d_7">
      <path d="M 278.613696 133.4 
L 278.613696 24.618 
" clip-path="url(#p4adbb479b5)" style="fill: none; stroke: #21262d; stroke-opacity: 0.6; stroke-width: 0.6; stroke-linecap: square"/>
     </g>
     <g id="line2d_8">
      <g>
       <use xlink:href="#m9f2aa02283" x="278.613696" y="133.4" style="fill: #8b949e; stroke: #8b949e; stroke-width: 0.8"/>
      </g>
     </g>
     <g id="text_4">
      <!-- 75 -->
      <g style="fill: #8b949e" transform="translate(272.919165 150.78) scale(0.1 -0.1)">
       <defs>
        <path id="PlusJakartaSans-Regular-1e6" d="M 506 0 
L 2656 4320 
L 275 4320 
L 275 4768 
L 3187 4768 
L 3187 4320 
L 1043 0 
L 506 0 
z
" transform="scale(0.015625)"/>
       </defs>
       <use xlink:href="#PlusJakartaSans-Regular-1e6"/>
       <use xlink:href="#PlusJakartaSans-Regular-1e4" transform="translate(52.296875 0)"/>
      </g>
     </g>
    </g>
    <g id="xtick_5">
     <g id="line2d_9">
      <path d="M 346.868262 133.4 
L 346.868262 24.618 
" clip-path="url(#p4adbb479b5)" style="fill: none; stroke: #21262d; stroke-opacity: 0.6; stroke-width: 0.6; stroke-linecap: square"/>
     </g>
     <g id="line2d_10">
      <g>
       <use xlink:href="#m9f2aa02283" x="346.868262" y="133.4" style="fill: #8b949e; stroke: #8b949e; stroke-width: 0.8"/>
      </g>
     </g>
     <g id="text_5">
      <!-- 100 -->
      <g style="fill: #8b949e" transform="translate(337.693262 150.78) scale(0.1 -0.1)">
       <defs>
        <path id="PlusJakartaSans-Regular-1e0" d="M 1158 0 
L 1158 4320 
L 262 4320 
L 262 4768 
L 1670 4768 
L 1670 0 
L 1158 0 
z
" transform="scale(0.015625)"/>
       </defs>
       <use xlink:href="#PlusJakartaSans-Regular-1e0"/>
       <use xlink:href="#PlusJakartaSans-Regular-1df" transform="translate(37.09375 0)"/>
       <use xlink:href="#PlusJakartaSans-Regular-1df" transform="translate(110.296875 0)"/>
      </g>
     </g>
    </g>
    <g id="xtick_6">
     <g id="line2d_11">
      <path d="M 415.122827 133.4 
L 415.122827 24.618 
" clip-path="url(#p4adbb479b5)" style="fill: none; stroke: #21262d; stroke-opacity: 0.6; stroke-width: 0.6; stroke-linecap: square"/>
     </g>
     <g id="line2d_12">
      <g>
       <use xlink:href="#m9f2aa02283" x="415.122827" y="133.4" style="fill: #8b949e; stroke: #8b949e; stroke-width: 0.8"/>
      </g>
     </g>
     <g id="text_6">
      <!-- 125 -->
      <g style="fill: #8b949e" transform="translate(407.188452 150.78) scale(0.1 -0.1)">
       <use xlink:href="#PlusJakartaSans-Regular-1e0"/>
       <use xlink:href="#PlusJakartaSans-Regular-1e1" transform="translate(37.09375 0)"/>
       <use xlink:href="#PlusJakartaSans-Regular-1e4" transform="translate(97.09375 0)"/>
      </g>
     </g>
    </g>
    <g id="xtick_7">
     <g id="line2d_13">
      <path d="M 483.377393 133.4 
L 483.377393 24.618 
" clip-path="url(#p4adbb479b5)" style="fill: none; stroke: #21262d; stroke-opacity: 0.6; stroke-width: 0.6; stroke-linecap: square"/>
     </g>
     <g id="line2d_14">
      <g>
       <use xlink:href="#m9f2aa02283" x="483.377393" y="133.4" style="fill: #8b949e; stroke: #8b949e; stroke-width: 0.8"/>
      </g>
     </g>
     <g id="text_7">
      <!-- 150 -->
      <g style="fill: #8b949e" transform="translate(474.782861 150.78) scale(0.1 -0.1)">
       <use xlink:href="#PlusJakartaSans-Regular-1e0"/>
       <use xlink:href="#PlusJakartaSans-Regular-1e4" transform="translate(37.09375 0)"/>
       <use xlink:href="#PlusJakartaSans-Regular-1df" transform="translate(98.6875 0)"/>
      </g>
     </g>
    </g>
    <g id="xtick_8">
     <g id="line2d_15">
      <path d="M 551.631958 133.4 
L 551.631958 24.618 
" clip-path="url(#p4adbb479b5)" style="fill: none; stroke: #21262d; stroke-opacity: 0.6; stroke-width: 0.6; stroke-linecap: square"/>
     </g>
     <g id="line2d_16">
      <g>
       <use xlink:href="#m9f2aa02283" x="551.631958" y="133.4" style="fill: #8b949e; stroke: #8b949e; stroke-width: 0.8"/>
      </g>
     </g>
     <g id="text_8">
      <!-- 175 -->
      <g style="fill: #8b949e" transform="translate(544.082739 150.78) scale(0.1 -0.1)">
       <use xlink:href="#PlusJakartaSans-Regular-1e0"/>
       <use xlink:href="#PlusJakartaSans-Regular-1e6" transform="translate(37.09375 0)"/>
       <use xlink:href="#PlusJakartaSans-Regular-1e4" transform="translate(89.390625 0)"/>
      </g>
     </g>
    </g>
    <g id="text_9">
     <!-- Time (months) -->
     <g style="fill: #8b949e" transform="translate(269.519576 167.38) scale(0.1 -0.1)">
      <defs>
       <path id="PlusJakartaSans-Regular-b7" d="M 1389 0 
L 1389 4288 
L 70 4288 
L 70 4768 
L 3206 4768 
L 3206 4288 
L 1901 4288 
L 1901 0 
L 1389 0 
z
" transform="scale(0.015625)"/>
       <path id="PlusJakartaSans-Regular-13a" d="M 493 0 
L 493 3430 
L 973 3430 
L 973 0 
L 493 0 
z
M 493 4064 
L 493 4768 
L 973 4768 
L 973 4064 
L 493 4064 
z
" transform="scale(0.015625)"/>
       <path id="PlusJakartaSans-Regular-15a" d="M 493 0 
L 493 3430 
L 973 3430 
L 973 2778 
L 896 2874 
Q 1037 3174 1315 3340 
Q 1594 3507 1926 3507 
Q 2323 3507 2643 3283 
Q 2963 3059 3098 2701 
L 2963 2694 
Q 3091 3091 3408 3299 
Q 3725 3507 4109 3507 
Q 4454 3507 4745 3340 
Q 5037 3174 5213 2883 
Q 5389 2592 5389 2227 
L 5389 0 
L 4909 0 
L 4909 2042 
Q 4909 2355 4797 2572 
Q 4685 2790 4493 2908 
Q 4301 3027 4051 3027 
Q 3808 3027 3609 2908 
Q 3411 2790 3296 2569 
Q 3181 2349 3181 2042 
L 3181 0 
L 2701 0 
L 2701 2042 
Q 2701 2355 2589 2572 
Q 2477 2790 2285 2908 
Q 2093 3027 1843 3027 
Q 1594 3027 1398 2908 
Q 1203 2790 1088 2569 
Q 973 2349 973 2042 
L 973 0 
L 493 0 
z
" transform="scale(0.015625)"/>
       <path id="PlusJakartaSans-Regular-115" d="M 2054 -77 
Q 1574 -77 1187 156 
Q 800 390 576 800 
Q 352 1210 352 1728 
Q 352 2246 569 2646 
Q 787 3046 1161 3276 
Q 1536 3507 2003 3507 
Q 2374 3507 2665 3369 
Q 2957 3232 3161 2998 
Q 3366 2765 3475 2473 
Q 3584 2182 3584 1875 
Q 3584 1811 3577 1731 
Q 3571 1651 3558 1568 
L 659 1568 
L 659 2016 
L 3283 2016 
L 3053 1824 
Q 3110 2176 2972 2454 
Q 2835 2733 2579 2896 
Q 2323 3059 2003 3059 
Q 1683 3059 1411 2892 
Q 1139 2726 985 2428 
Q 832 2131 864 1722 
Q 832 1312 995 1008 
Q 1158 704 1443 537 
Q 1728 371 2054 371 
Q 2432 371 2688 550 
Q 2944 730 3104 998 
L 3514 781 
Q 3411 550 3200 355 
Q 2989 160 2697 41 
Q 2406 -77 2054 -77 
z
" transform="scale(0.015625)"/>
       <path id="PlusJakartaSans-Regular-225" transform="scale(0.015625)"/>
       <path id="PlusJakartaSans-Regular-248" d="M 1344 -896 
Q 838 -320 572 403 
Q 307 1126 307 1939 
Q 307 2758 572 3478 
Q 838 4198 1344 4768 
L 1760 4768 
Q 1299 4128 1059 3405 
Q 819 2682 819 1939 
Q 819 1197 1059 473 
Q 1299 -250 1760 -896 
L 1344 -896 
z
" transform="scale(0.015625)"/>
       <path id="PlusJakartaSans-Regular-166" d="M 2099 -77 
Q 1613 -77 1216 156 
Q 819 390 585 796 
Q 352 1203 352 1722 
Q 352 2234 582 2637 
Q 813 3040 1206 3273 
Q 1600 3507 2099 3507 
Q 2598 3507 2992 3276 
Q 3386 3046 3613 2643 
Q 3840 2240 3840 1722 
Q 3840 1197 3603 790 
Q 3366 384 2972 153 
Q 2579 -77 2099 -77 
z
M 2099 403 
Q 2445 403 2723 576 
Q 3002 749 3165 1049 
Q 3328 1350 3328 1722 
Q 3328 2093 3165 2387 
Q 3002 2682 2723 2854 
Q 2445 3027 2099 3027 
Q 1754 3027 1475 2854 
Q 1197 2682 1030 2387 
Q 864 2093 864 1722 
Q 864 1350 1030 1049 
Q 1197 749 1475 576 
Q 1754 403 2099 403 
z
" transform="scale(0.015625)"/>
       <path id="PlusJakartaSans-Regular-15c" d="M 493 0 
L 493 3430 
L 973 3430 
L 973 2765 
L 864 2790 
Q 992 3123 1283 3315 
Q 1574 3507 1958 3507 
Q 2323 3507 2614 3340 
Q 2906 3174 3075 2883 
Q 3245 2592 3245 2227 
L 3245 0 
L 2765 0 
L 2765 2042 
Q 2765 2355 2653 2572 
Q 2541 2790 2339 2908 
Q 2138 3027 1875 3027 
Q 1613 3027 1408 2908 
Q 1203 2790 1088 2569 
Q 973 2349 973 2042 
L 973 0 
L 493 0 
z
" transform="scale(0.015625)"/>
       <path id="PlusJakartaSans-Regular-1a0" d="M 1805 -38 
Q 1344 -38 1094 230 
Q 845 499 845 998 
L 845 2950 
L 211 2950 
L 211 3430 
L 371 3430 
Q 589 3430 717 3574 
Q 845 3718 845 3936 
L 845 4224 
L 1325 4224 
L 1325 3430 
L 2080 3430 
L 2080 2950 
L 1325 2950 
L 1325 998 
Q 1325 826 1376 694 
Q 1427 563 1552 486 
Q 1677 410 1888 410 
Q 1939 410 2009 416 
Q 2080 422 2131 429 
L 2131 0 
Q 2054 -19 1958 -28 
Q 1862 -38 1805 -38 
z
" transform="scale(0.015625)"/>
       <path id="PlusJakartaSans-Regular-135" d="M 493 0 
L 493 4845 
L 973 4845 
L 973 2765 
L 864 2790 
Q 992 3123 1283 3315 
Q 1574 3507 1958 3507 
Q 2323 3507 2614 3340 
Q 2906 3174 3075 2883 
Q 3245 2592 3245 2227 
L 3245 0 
L 2765 0 
L 2765 2042 
Q 2765 2355 2649 2572 
Q 2534 2790 2332 2908 
Q 2131 3027 1875 3027 
Q 1619 3027 1414 2908 
Q 1210 2790 1091 2569 
Q 973 2349 973 2042 
L 973 0 
L 493 0 
z
" transform="scale(0.015625)"/>
       <path id="PlusJakartaSans-Regular-194" d="M 1683 -77 
Q 1190 -77 819 172 
Q 448 422 282 851 
L 685 1043 
Q 832 730 1097 544 
Q 1363 358 1683 358 
Q 1990 358 2201 508 
Q 2413 659 2413 902 
Q 2413 1082 2310 1187 
Q 2208 1293 2073 1350 
Q 1939 1408 1837 1434 
L 1344 1574 
Q 870 1709 659 1952 
Q 448 2195 448 2515 
Q 448 2816 601 3040 
Q 755 3264 1017 3385 
Q 1280 3507 1600 3507 
Q 2035 3507 2390 3280 
Q 2746 3053 2893 2650 
L 2483 2458 
Q 2355 2746 2115 2909 
Q 1875 3072 1581 3072 
Q 1293 3072 1120 2925 
Q 947 2778 947 2554 
Q 947 2381 1036 2278 
Q 1126 2176 1244 2125 
Q 1363 2074 1453 2048 
L 2022 1882 
Q 2438 1760 2672 1504 
Q 2906 1248 2906 902 
Q 2906 621 2749 397 
Q 2592 173 2317 48 
Q 2042 -77 1683 -77 
z
" transform="scale(0.015625)"/>
       <path id="PlusJakartaSans-Regular-249" d="M 128 -896 
Q 589 -250 829 473 
Q 1069 1197 1069 1939 
Q 1069 2682 829 3405 
Q 589 4128 128 4768 
L 544 4768 
Q 1056 4198 1318 3478 
Q 1581 2758 1581 1939 
Q 1581 1126 1318 403 
Q 1056 -320 544 -896 
L 128 -896 
z
" transform="scale(0.015625)"/>
      </defs>
      <use xlink:href="#PlusJakartaSans-Regular-b7"/>
      <use xlink:href="#PlusJakartaSans-Regular-13a" transform="translate(51.203125 0)"/>
      <use xlink:href="#PlusJakartaSans-Regular-15a" transform="translate(74.109375 0)"/>
      <use xlink:href="#PlusJakartaSans-Regular-115" transform="translate(164.90625 0)"/>
      <use xlink:href="#PlusJakartaSans-Regular-225" transform="translate(226.40625 0)"/>
      <use xlink:href="#PlusJakartaSans-Regular-248" transform="translate(243.40625 0)"/>
      <use xlink:href="#PlusJakartaSans-Regular-15a" transform="translate(272.90625 0)"/>
      <use xlink:href="#PlusJakartaSans-Regular-166" transform="translate(363.703125 0)"/>
      <use xlink:href="#PlusJakartaSans-Regular-15c" transform="translate(429.203125 0)"/>
      <use xlink:href="#PlusJakartaSans-Regular-1a0" transform="translate(486.5 0)"/>
      <use xlink:href="#PlusJakartaSans-Regular-135" transform="translate(525.296875 0)"/>
      <use xlink:href="#PlusJakartaSans-Regular-194" transform="translate(582.59375 0)"/>
      <use xlink:href="#PlusJakartaSans-Regular-249" transform="translate(633.5 0)"/>
     </g>
    </g>
   </g>
   <g id="matplotlib.axis_2">
    <g id="ytick_1">
     <g id="line2d_17">
      <path d="M 50.968042 117.83405 
L 554.371111 117.83405 
" clip-path="url(#p4adbb479b5)" style="fill: none; stroke: #21262d; stroke-opacity: 0.6; stroke-width: 0.6; stroke-linecap: square"/>
     </g>
     <g id="line2d_18">
      <defs>
       <path id="mc1ae6c070e" d="M 0 0 
L -3.5 0 
" style="stroke: #8b949e; stroke-width: 0.8"/>
      </defs>
      <g>
       <use xlink:href="#mc1ae6c070e" x="50.968042" y="117.83405" style="fill: #8b949e; stroke: #8b949e; stroke-width: 0.8"/>
      </g>
     </g>
     <g id="text_10">
      <!-- 0.2 -->
      <g style="fill: #8b949e" transform="translate(27.788355 123.02405) scale(0.1 -0.1)">
       <defs>
        <path id="PlusJakartaSans-Regular-22f" d="M 659 0 
L 659 704 
L 1171 704 
L 1171 0 
L 659 0 
z
" transform="scale(0.015625)"/>
       </defs>
       <use xlink:href="#PlusJakartaSans-Regular-1df"/>
       <use xlink:href="#PlusJakartaSans-Regular-22f" transform="translate(73.203125 0)"/>
       <use xlink:href="#PlusJakartaSans-Regular-1e1" transform="translate(101.796875 0)"/>
      </g>
     </g>
    </g>
    <g id="ytick_2">
     <g id="line2d_19">
      <path d="M 50.968042 95.766197 
L 554.371111 95.766197 
" clip-path="url(#p4adbb479b5)" style="fill: none; stroke: #21262d; stroke-opacity: 0.6; stroke-width: 0.6; stroke-linecap: square"/>
     </g>
     <g id="line2d_20">
      <g>
       <use xlink:href="#mc1ae6c070e" x="50.968042" y="95.766197" style="fill: #8b949e; stroke: #8b949e; stroke-width: 0.8"/>
      </g>
     </g>
     <g id="text_11">
      <!-- 0.4 -->
      <g style="fill: #8b949e" transform="translate(27.488355 100.956197) scale(0.1 -0.1)">
       <defs>
        <path id="PlusJakartaSans-Regular-1e3" d="M 2720 0 
L 2720 1126 
L 294 1126 
L 294 1542 
L 2720 4768 
L 3168 4768 
L 3168 1542 
L 3750 1542 
L 3750 1126 
L 3168 1126 
L 3168 0 
L 2720 0 
z
M 685 1357 
L 627 1542 
L 2720 1542 
L 2720 4326 
L 2880 4282 
L 685 1357 
z
" transform="scale(0.015625)"/>
       </defs>
       <use xlink:href="#PlusJakartaSans-Regular-1df"/>
       <use xlink:href="#PlusJakartaSans-Regular-22f" transform="translate(73.203125 0)"/>
       <use xlink:href="#PlusJakartaSans-Regular-1e3" transform="translate(101.796875 0)"/>
      </g>
     </g>
    </g>
    <g id="ytick_3">
     <g id="line2d_21">
      <path d="M 50.968042 73.698343 
L 554.371111 73.698343 
" clip-path="url(#p4adbb479b5)" style="fill: none; stroke: #21262d; stroke-opacity: 0.6; stroke-width: 0.6; stroke-linecap: square"/>
     </g>
     <g id="line2d_22">
      <g>
       <use xlink:href="#mc1ae6c070e" x="50.968042" y="73.698343" style="fill: #8b949e; stroke: #8b949e; stroke-width: 0.8"/>
      </g>
     </g>
     <g id="text_12">
      <!-- 0.6 -->
      <g style="fill: #8b949e" transform="translate(27.818042 78.888343) scale(0.1 -0.1)">
       <defs>
        <path id="PlusJakartaSans-Regular-1e5" d="M 1920 -77 
Q 1472 -77 1126 124 
Q 781 326 582 681 
Q 384 1037 384 1498 
Q 384 1754 445 2003 
Q 506 2253 630 2496 
Q 755 2739 934 2982 
L 2278 4768 
L 2893 4768 
L 1235 2598 
L 1139 2541 
Q 1235 2701 1363 2787 
Q 1491 2874 1648 2912 
Q 1805 2950 1984 2950 
Q 2400 2950 2733 2755 
Q 3066 2560 3261 2221 
Q 3456 1882 3456 1434 
Q 3456 1005 3254 662 
Q 3053 320 2707 121 
Q 2362 -77 1920 -77 
z
M 1920 371 
Q 2214 371 2444 508 
Q 2675 646 2809 889 
Q 2944 1133 2944 1434 
Q 2944 1741 2813 1977 
Q 2682 2214 2451 2352 
Q 2221 2490 1920 2490 
Q 1626 2490 1392 2352 
Q 1158 2214 1027 1977 
Q 896 1741 896 1434 
Q 896 1133 1030 889 
Q 1165 646 1395 508 
Q 1626 371 1920 371 
z
" transform="scale(0.015625)"/>
       </defs>
       <use xlink:href="#PlusJakartaSans-Regular-1df"/>
       <use xlink:href="#PlusJakartaSans-Regular-22f" transform="translate(73.203125 0)"/>
       <use xlink:href="#PlusJakartaSans-Regular-1e5" transform="translate(101.796875 0)"/>
      </g>
     </g>
    </g>
    <g id="ytick_4">
     <g id="line2d_23">
      <path d="M 50.968042 51.63049 
L 554.371111 51.63049 
" clip-path="url(#p4adbb479b5)" style="fill: none; stroke: #21262d; stroke-opacity: 0.6; stroke-width: 0.6; stroke-linecap: square"/>
     </g>
     <g id="line2d_24">
      <g>
       <use xlink:href="#mc1ae6c070e" x="50.968042" y="51.63049" style="fill: #8b949e; stroke: #8b949e; stroke-width: 0.8"/>
      </g>
     </g>
     <g id="text_13">
      <!-- 0.8 -->
      <g style="fill: #8b949e" transform="translate(27.508667 56.82049) scale(0.1 -0.1)">
       <defs>
        <path id="PlusJakartaSans-Regular-1e7" d="M 2010 -77 
Q 1549 -77 1187 112 
Q 826 301 618 630 
Q 410 960 410 1376 
Q 410 1830 669 2188 
Q 928 2547 1370 2688 
L 1370 2554 
Q 1030 2701 844 2992 
Q 659 3283 659 3616 
Q 659 3968 838 4243 
Q 1018 4518 1322 4681 
Q 1626 4845 2010 4845 
Q 2400 4845 2701 4688 
Q 3002 4531 3178 4252 
Q 3354 3974 3354 3616 
Q 3354 3258 3162 2979 
Q 2970 2701 2656 2554 
L 2650 2688 
Q 3091 2547 3350 2188 
Q 3610 1830 3610 1376 
Q 3610 960 3402 630 
Q 3194 301 2832 112 
Q 2470 -77 2010 -77 
z
M 2010 371 
Q 2336 371 2579 496 
Q 2822 621 2960 848 
Q 3098 1075 3098 1376 
Q 3098 1677 2960 1904 
Q 2822 2131 2579 2256 
Q 2336 2381 2010 2381 
Q 1683 2381 1436 2256 
Q 1190 2131 1056 1904 
Q 922 1677 922 1376 
Q 922 1075 1056 848 
Q 1190 621 1436 496 
Q 1683 371 2010 371 
z
M 2010 2829 
Q 2246 2829 2432 2928 
Q 2618 3027 2730 3203 
Q 2842 3379 2842 3616 
Q 2842 3853 2730 4025 
Q 2618 4198 2432 4297 
Q 2246 4397 2010 4397 
Q 1773 4397 1584 4297 
Q 1395 4198 1283 4025 
Q 1171 3853 1171 3616 
Q 1171 3379 1283 3203 
Q 1395 3027 1584 2928 
Q 1773 2829 2010 2829 
z
" transform="scale(0.015625)"/>
       </defs>
       <use xlink:href="#PlusJakartaSans-Regular-1df"/>
       <use xlink:href="#PlusJakartaSans-Regular-22f" transform="translate(73.203125 0)"/>
       <use xlink:href="#PlusJakartaSans-Regular-1e7" transform="translate(101.796875 0)"/>
      </g>
     </g>
    </g>
    <g id="ytick_5">
     <g id="line2d_25">
      <path d="M 50.968042 29.562636 
L 554.371111 29.562636 
" clip-path="url(#p4adbb479b5)" style="fill: none; stroke: #21262d; stroke-opacity: 0.6; stroke-width: 0.6; stroke-linecap: square"/>
     </g>
     <g id="line2d_26">
      <g>
       <use xlink:href="#mc1ae6c070e" x="50.968042" y="29.562636" style="fill: #8b949e; stroke: #8b949e; stroke-width: 0.8"/>
      </g>
     </g>
     <g id="text_14">
      <!-- 1.0 -->
      <g style="fill: #8b949e" transform="translate(30.07898 34.752636) scale(0.1 -0.1)">
       <use xlink:href="#PlusJakartaSans-Regular-1e0"/>
       <use xlink:href="#PlusJakartaSans-Regular-22f" transform="translate(37.09375 0)"/>
       <use xlink:href="#PlusJakartaSans-Regular-1df" transform="translate(65.6875 0)"/>
      </g>
     </g>
    </g>
    <g id="text_15">
     <!-- Survival probability -->
     <g style="fill: #8b949e" transform="translate(21.268355 123.750406) rotate(-90) scale(0.1 -0.1)">
      <defs>
       <path id="PlusJakartaSans-Regular-ab" d="M 2170 -77 
Q 1715 -77 1344 96 
Q 973 269 717 560 
Q 461 851 352 1203 
L 813 1376 
Q 979 890 1331 637 
Q 1683 384 2170 384 
Q 2477 384 2710 483 
Q 2944 582 3072 761 
Q 3200 941 3200 1178 
Q 3200 1530 3008 1722 
Q 2816 1914 2458 2016 
L 1600 2272 
Q 1094 2419 822 2764 
Q 550 3110 550 3552 
Q 550 3930 736 4221 
Q 922 4512 1245 4678 
Q 1568 4845 1978 4845 
Q 2406 4845 2748 4688 
Q 3091 4531 3328 4275 
Q 3565 4019 3667 3706 
L 3219 3526 
Q 3066 3949 2742 4166 
Q 2419 4384 1984 4384 
Q 1709 4384 1501 4288 
Q 1293 4192 1177 4013 
Q 1062 3834 1062 3590 
Q 1062 3296 1248 3062 
Q 1434 2829 1818 2714 
L 2573 2490 
Q 3136 2323 3424 2009 
Q 3712 1696 3712 1222 
Q 3712 838 3517 547 
Q 3322 256 2973 89 
Q 2624 -77 2170 -77 
z
" transform="scale(0.015625)"/>
       <path id="PlusJakartaSans-Regular-1a8" d="M 1709 -77 
Q 1350 -77 1056 92 
Q 762 262 592 566 
Q 422 870 422 1267 
L 422 3430 
L 902 3430 
L 902 1325 
Q 902 1050 1014 842 
Q 1126 634 1328 518 
Q 1530 403 1792 403 
Q 2054 403 2259 521 
Q 2464 640 2579 861 
Q 2694 1082 2694 1389 
L 2694 3430 
L 3174 3430 
L 3174 0 
L 2694 0 
L 2694 666 
L 2803 640 
Q 2682 307 2387 115 
Q 2093 -77 1709 -77 
z
" transform="scale(0.015625)"/>
       <path id="PlusJakartaSans-Regular-18c" d="M 493 0 
L 493 3430 
L 973 3430 
L 973 2867 
L 909 2950 
Q 1030 3194 1276 3334 
Q 1523 3475 1875 3475 
L 2093 3475 
L 2093 2995 
L 1792 2995 
Q 1421 2995 1197 2764 
Q 973 2534 973 2112 
L 973 0 
L 493 0 
z
" transform="scale(0.015625)"/>
       <path id="PlusJakartaSans-Regular-1bf" d="M 1408 0 
L 70 3430 
L 608 3430 
L 1734 422 
L 1562 422 
L 2694 3430 
L 3238 3430 
L 1888 0 
L 1408 0 
z
" transform="scale(0.015625)"/>
       <path id="PlusJakartaSans-Regular-eb" d="M 1485 -77 
Q 1158 -77 902 48 
Q 646 173 499 390 
Q 352 608 352 890 
Q 352 1158 467 1379 
Q 582 1600 825 1753 
Q 1069 1907 1446 1971 
L 2790 2195 
L 2790 1760 
L 1562 1555 
Q 1190 1491 1027 1318 
Q 864 1146 864 909 
Q 864 678 1046 518 
Q 1229 358 1517 358 
Q 1869 358 2131 508 
Q 2394 659 2541 915 
Q 2688 1171 2688 1485 
L 2688 2355 
Q 2688 2662 2464 2854 
Q 2240 3046 1882 3046 
Q 1568 3046 1331 2889 
Q 1094 2733 979 2483 
L 544 2720 
Q 640 2938 848 3117 
Q 1056 3296 1325 3401 
Q 1594 3507 1882 3507 
Q 2259 3507 2550 3360 
Q 2842 3213 3005 2953 
Q 3168 2694 3168 2355 
L 3168 0 
L 2688 0 
L 2688 685 
L 2758 614 
Q 2669 422 2480 265 
Q 2291 109 2038 16 
Q 1786 -77 1485 -77 
z
" transform="scale(0.015625)"/>
       <path id="PlusJakartaSans-Regular-151" d="M 493 0 
L 493 4845 
L 973 4845 
L 973 0 
L 493 0 
z
" transform="scale(0.015625)"/>
       <path id="PlusJakartaSans-Regular-189" d="M 493 -1280 
L 493 3430 
L 973 3430 
L 973 2662 
L 896 2797 
Q 1101 3123 1443 3315 
Q 1786 3507 2227 3507 
Q 2714 3507 3094 3273 
Q 3475 3040 3696 2637 
Q 3917 2234 3917 1715 
Q 3917 1203 3696 796 
Q 3475 390 3094 156 
Q 2714 -77 2227 -77 
Q 1786 -77 1430 124 
Q 1075 326 896 698 
L 973 768 
L 973 -1280 
L 493 -1280 
z
M 2202 403 
Q 2547 403 2819 576 
Q 3091 749 3248 1046 
Q 3405 1344 3405 1715 
Q 3405 2093 3248 2387 
Q 3091 2682 2819 2854 
Q 2547 3027 2202 3027 
Q 1856 3027 1577 2854 
Q 1299 2682 1136 2384 
Q 973 2086 973 1715 
Q 973 1344 1136 1046 
Q 1299 749 1577 576 
Q 1856 403 2202 403 
z
" transform="scale(0.015625)"/>
       <path id="PlusJakartaSans-Regular-106" d="M 2227 -77 
Q 1786 -77 1430 124 
Q 1075 326 896 698 
L 973 768 
L 973 0 
L 493 0 
L 493 4845 
L 973 4845 
L 973 2662 
L 896 2797 
Q 1101 3123 1443 3315 
Q 1786 3507 2227 3507 
Q 2714 3507 3094 3273 
Q 3475 3040 3696 2637 
Q 3917 2234 3917 1715 
Q 3917 1203 3696 796 
Q 3475 390 3094 156 
Q 2714 -77 2227 -77 
z
M 2202 403 
Q 2547 403 2819 576 
Q 3091 749 3248 1046 
Q 3405 1344 3405 1715 
Q 3405 2093 3248 2387 
Q 3091 2682 2819 2854 
Q 2547 3027 2202 3027 
Q 1856 3027 1577 2854 
Q 1299 2682 1136 2384 
Q 973 2086 973 1715 
Q 973 1344 1136 1046 
Q 1299 749 1577 576 
Q 1856 403 2202 403 
z
" transform="scale(0.015625)"/>
       <path id="PlusJakartaSans-Regular-1c6" d="M 563 -1408 
Q 461 -1408 355 -1392 
Q 250 -1376 147 -1338 
L 147 -890 
Q 211 -896 310 -912 
Q 410 -928 512 -928 
Q 826 -928 992 -797 
Q 1158 -666 1318 -294 
L 1536 218 
L 1523 -205 
L 70 3430 
L 589 3430 
L 1779 429 
L 1645 429 
L 2829 3430 
L 3360 3430 
L 1792 -435 
Q 1690 -685 1533 -909 
Q 1376 -1133 1139 -1270 
Q 902 -1408 563 -1408 
z
" transform="scale(0.015625)"/>
      </defs>
      <use xlink:href="#PlusJakartaSans-Regular-ab"/>
      <use xlink:href="#PlusJakartaSans-Regular-1a8" transform="translate(64.59375 0)"/>
      <use xlink:href="#PlusJakartaSans-Regular-18c" transform="translate(121.890625 0)"/>
      <use xlink:href="#PlusJakartaSans-Regular-1bf" transform="translate(155.6875 0)"/>
      <use xlink:href="#PlusJakartaSans-Regular-13a" transform="translate(207.390625 0)"/>
      <use xlink:href="#PlusJakartaSans-Regular-1bf" transform="translate(230.296875 0)"/>
      <use xlink:href="#PlusJakartaSans-Regular-eb" transform="translate(280 0)"/>
      <use xlink:href="#PlusJakartaSans-Regular-151" transform="translate(337.203125 0)"/>
      <use xlink:href="#PlusJakartaSans-Regular-225" transform="translate(360.109375 0)"/>
      <use xlink:href="#PlusJakartaSans-Regular-189" transform="translate(377.109375 0)"/>
      <use xlink:href="#PlusJakartaSans-Regular-18c" transform="translate(443.8125 0)"/>
      <use xlink:href="#PlusJakartaSans-Regular-166" transform="translate(477.609375 0)"/>
      <use xlink:href="#PlusJakartaSans-Regular-106" transform="translate(543.109375 0)"/>
      <use xlink:href="#PlusJakartaSans-Regular-eb" transform="translate(609.8125 0)"/>
      <use xlink:href="#PlusJakartaSans-Regular-106" transform="translate(667.015625 0)"/>
      <use xlink:href="#PlusJakartaSans-Regular-13a" transform="translate(733.71875 0)"/>
      <use xlink:href="#PlusJakartaSans-Regular-151" transform="translate(756.625 0)"/>
      <use xlink:href="#PlusJakartaSans-Regular-13a" transform="translate(779.53125 0)"/>
      <use xlink:href="#PlusJakartaSans-Regular-1a0" transform="translate(802.4375 0)"/>
      <use xlink:href="#PlusJakartaSans-Regular-1c6" transform="translate(841.234375 0)"/>
     </g>
    </g>
   </g>
   <g id="line2d_27">
    <path d="M 73.85 29.562636 
L 84.882853 29.562636 
L 84.882853 30.845651 
L 88.381075 30.845651 
L 88.381075 32.128666 
L 89.457451 32.128666 
L 89.457451 33.411681 
L 90.892618 33.411681 
L 90.892618 34.694695 
L 92.417484 34.694695 
L 92.417484 35.97771 
L 94.83933 35.97771 
L 94.83933 37.260725 
L 98.87574 37.260725 
L 98.87574 38.54374 
L 100.131512 38.54374 
L 100.131512 39.826754 
L 100.580001 39.826754 
L 100.580001 41.109769 
L 101.566679 41.109769 
L 101.566679 42.409665 
L 101.925471 42.409665 
L 101.925471 43.709562 
L 105.333995 43.709562 
L 105.423693 46.309355 
L 105.872183 46.309355 
L 105.872183 47.609252 
L 107.755841 47.609252 
L 107.755841 48.909148 
L 108.114633 48.909148 
L 108.114633 50.209045 
L 112.599532 50.209045 
L 112.599532 51.508941 
L 113.496512 51.508941 
L 113.496512 52.808838 
L 114.214096 52.808838 
L 114.214096 54.108734 
L 114.662586 54.108734 
L 114.662586 55.408631 
L 116.635942 55.408631 
L 116.635942 56.708527 
L 117.263828 56.708527 
L 117.263828 58.008424 
L 118.429902 58.008424 
L 118.429902 59.30832 
L 119.506278 59.30832 
L 119.506278 60.608217 
L 120.941446 60.608217 
L 120.941446 61.908113 
L 122.914801 61.908113 
L 122.914801 63.20801 
L 126.502721 63.20801 
L 126.502721 64.507906 
L 130.000943 64.507906 
L 130.000943 65.807803 
L 130.449433 65.807803 
L 130.449433 67.107699 
L 133.768258 67.107699 
L 133.768258 68.407596 
L 138.970742 68.407596 
L 138.970742 69.707492 
L 139.150138 69.707492 
L 139.150138 71.007389 
L 139.778024 71.007389 
L 139.778024 72.307285 
L 141.661682 72.307285 
L 141.661682 73.607182 
L 143.186547 73.607182 
L 143.186547 74.907078 
L 143.365943 74.907078 
L 143.365943 76.206975 
L 145.159903 76.206975 
L 145.159903 77.506871 
L 148.030239 77.506871 
L 148.030239 78.806768 
L 154.936984 78.806768 
L 154.936984 80.106664 
L 155.744266 80.106664 
L 155.833964 82.706457 
L 155.923662 82.706457 
L 155.923662 84.006354 
L 156.91034 84.006354 
L 156.91034 85.30625 
L 157.089736 85.30625 
L 157.089736 86.606147 
L 158.076414 86.606147 
L 158.076414 87.906043 
L 160.318864 87.906043 
L 160.408562 90.505836 
L 160.49826 90.505836 
L 160.49826 91.805733 
L 164.265575 91.805733 
L 164.265575 93.105629 
L 165.969837 93.105629 
L 165.969837 94.405526 
L 175.746918 94.405526 
L 175.746918 95.705422 
L 177.092388 95.705422 
L 177.092388 97.005319 
L 177.45118 97.005319 
L 177.45118 98.305215 
L 178.617254 98.305215 
L 178.617254 99.605112 
L 179.962724 99.605112 
L 179.962724 100.905008 
L 185.254906 100.905008 
L 185.254906 102.204905 
L 186.510677 102.204905 
L 186.510677 103.504801 
L 188.394335 103.504801 
L 188.394335 104.804698 
L 202.746014 104.804698 
L 202.746014 106.104594 
L 212.881887 106.104594 
L 212.881887 107.404491 
L 239.342794 107.404491 
L 239.342794 108.75855 
L 251.990211 108.75855 
L 251.990211 110.241567 
L 265.175816 110.241567 
L 265.175816 111.986292 
L 273.607427 111.986292 
L 273.607427 113.731018 
L 292.713099 113.731018 
L 292.713099 115.475744 
L 325.811658 115.475744 
L 325.811658 117.91836 
L 531.489153 117.91836 
L 531.489153 117.91836 
" clip-path="url(#p4adbb479b5)" style="fill: none; stroke: #3987e5; stroke-width: 2; stroke-linecap: square"/>
   </g>
   <g id="line2d_28">
    <path d="M 73.85 29.562636 
L 76.720336 29.562636 
L 76.720336 33.649276 
L 88.829565 33.649276 
L 88.829565 37.735915 
L 94.032048 37.735915 
L 94.032048 41.822555 
L 105.692787 41.822555 
L 105.692787 45.909194 
L 111.79225 45.909194 
L 111.79225 49.995834 
L 118.788694 49.995834 
L 118.788694 54.082474 
L 133.23007 54.082474 
L 133.23007 58.169113 
L 139.329534 58.169113 
L 139.329534 62.255753 
L 141.571984 62.255753 
L 141.571984 66.342392 
L 142.379266 66.342392 
L 142.379266 70.429032 
L 143.814433 70.429032 
L 143.814433 74.515671 
L 145.698091 74.515671 
L 145.698091 78.602311 
L 155.833964 78.602311 
L 155.833964 82.68895 
L 163.727388 82.68895 
L 163.727388 86.77559 
L 165.790441 86.77559 
L 165.790441 90.862229 
L 187.856147 90.862229 
L 187.856147 94.948869 
L 189.022221 94.948869 
L 189.022221 99.035508 
L 202.02843 99.035508 
L 202.02843 99.035508 
L 216.559505 99.035508 
L 216.559505 103.576219 
L 217.725578 103.576219 
L 217.725578 108.116929 
L 221.044404 108.116929 
L 221.044404 112.65764 
L 248.0435 112.65764 
L 248.0435 112.65764 
L 283.384508 112.65764 
L 283.384508 112.65764 
L 288.048804 112.65764 
L 288.048804 112.65764 
L 291.905817 112.65764 
L 291.905817 112.65764 
L 341.419109 112.65764 
L 341.419109 112.65764 
L 367.521224 112.65764 
L 367.521224 112.65764 
" clip-path="url(#p4adbb479b5)" style="fill: none; stroke: #d95926; stroke-width: 2; stroke-linecap: square"/>
   </g>
   <g id="patch_3">
    <path d="M 50.968042 133.4 
L 50.968042 24.618 
" style="fill: none; stroke: #21262d; stroke-width: 0.8; stroke-linejoin: miter; stroke-linecap: square"/>
   </g>
   <g id="patch_4">
    <path d="M 554.371111 133.4 
L 554.371111 24.618 
" style="fill: none; stroke: #21262d; stroke-width: 0.8; stroke-linejoin: miter; stroke-linecap: square"/>
   </g>
   <g id="patch_5">
    <path d="M 50.968042 133.4 
L 554.371111 133.4 
" style="fill: none; stroke: #21262d; stroke-width: 0.8; stroke-linejoin: miter; stroke-linecap: square"/>
   </g>
   <g id="patch_6">
    <path d="M 50.968042 24.618 
L 554.371111 24.618 
" style="fill: none; stroke: #21262d; stroke-width: 0.8; stroke-linejoin: miter; stroke-linecap: square"/>
   </g>
   <g id="text_16">
    <!-- High -->
    <g style="fill: #3987e5" transform="translate(537.489153 121.59036) scale(0.09 -0.09)">
     <defs>
      <path id="PlusJakartaSans-Bold-4c" d="M 461 0 
L 461 4768 
L 1331 4768 
L 1331 2688 
L 3360 2688 
L 3360 4768 
L 4237 4768 
L 4237 0 
L 3360 0 
L 3360 1920 
L 1331 1920 
L 1331 0 
L 461 0 
z
" transform="scale(0.015625)"/>
      <path id="PlusJakartaSans-Bold-13a" d="M 390 0 
L 390 3482 
L 1229 3482 
L 1229 0 
L 390 0 
z
M 390 3872 
L 390 4768 
L 1229 4768 
L 1229 3872 
L 390 3872 
z
" transform="scale(0.015625)"/>
      <path id="PlusJakartaSans-Bold-12e" d="M 2080 -1408 
Q 1690 -1408 1357 -1280 
Q 1024 -1152 784 -925 
Q 544 -698 435 -390 
L 1216 -96 
Q 1293 -339 1520 -489 
Q 1747 -640 2080 -640 
Q 2336 -640 2531 -544 
Q 2726 -448 2835 -265 
Q 2944 -83 2944 173 
L 2944 966 
L 3104 774 
Q 2925 461 2624 301 
Q 2323 141 1939 141 
Q 1453 141 1069 365 
Q 685 589 467 979 
Q 250 1370 250 1856 
Q 250 2349 467 2733 
Q 685 3117 1062 3337 
Q 1440 3558 1920 3558 
Q 2310 3558 2608 3395 
Q 2906 3232 3104 2925 
L 2989 2714 
L 2989 3482 
L 3782 3482 
L 3782 173 
Q 3782 -282 3561 -640 
Q 3341 -998 2960 -1203 
Q 2579 -1408 2080 -1408 
z
M 2042 915 
Q 2310 915 2512 1033 
Q 2714 1152 2829 1363 
Q 2944 1574 2944 1850 
Q 2944 2118 2825 2332 
Q 2707 2547 2505 2668 
Q 2304 2790 2042 2790 
Q 1779 2790 1568 2668 
Q 1357 2547 1238 2332 
Q 1120 2118 1120 1850 
Q 1120 1581 1238 1369 
Q 1357 1158 1565 1036 
Q 1773 915 2042 915 
z
" transform="scale(0.015625)"/>
      <path id="PlusJakartaSans-Bold-135" d="M 390 0 
L 390 4845 
L 1229 4845 
L 1229 2797 
L 1114 2918 
Q 1235 3232 1513 3395 
Q 1792 3558 2163 3558 
Q 2547 3558 2844 3392 
Q 3142 3226 3308 2928 
Q 3475 2630 3475 2240 
L 3475 0 
L 2637 0 
L 2637 2042 
Q 2637 2272 2547 2438 
Q 2458 2605 2301 2697 
Q 2144 2790 1933 2790 
Q 1728 2790 1568 2697 
Q 1408 2605 1318 2438 
Q 1229 2272 1229 2042 
L 1229 0 
L 390 0 
z
" transform="scale(0.015625)"/>
     </defs>
     <use xlink:href="#PlusJakartaSans-Bold-4c"/>
     <use xlink:href="#PlusJakartaSans-Bold-13a" transform="translate(73.296875 0)"/>
     <use xlink:href="#PlusJakartaSans-Bold-12e" transform="translate(98.5 0)"/>
     <use xlink:href="#PlusJakartaSans-Bold-135" transform="translate(163.703125 0)"/>
    </g>
   </g>
   <g id="text_17">
    <!-- Low -->
    <g style="fill: #d95926" transform="translate(373.521224 116.32964) scale(0.09 -0.09)">
     <defs>
      <path id="PlusJakartaSans-Bold-66" d="M 461 0 
L 461 4768 
L 1331 4768 
L 1331 768 
L 3373 768 
L 3373 0 
L 461 0 
z
" transform="scale(0.015625)"/>
      <path id="PlusJakartaSans-Bold-166" d="M 2093 -77 
Q 1581 -77 1161 160 
Q 742 397 496 806 
Q 250 1216 250 1741 
Q 250 2266 496 2675 
Q 742 3085 1158 3321 
Q 1574 3558 2093 3558 
Q 2605 3558 3021 3321 
Q 3437 3085 3683 2678 
Q 3930 2272 3930 1741 
Q 3930 1216 3680 806 
Q 3430 397 3014 160 
Q 2598 -77 2093 -77 
z
M 2093 691 
Q 2374 691 2588 825 
Q 2803 960 2928 1200 
Q 3053 1440 3053 1741 
Q 3053 2048 2928 2281 
Q 2803 2515 2588 2652 
Q 2374 2790 2093 2790 
Q 1805 2790 1587 2652 
Q 1370 2515 1245 2281 
Q 1120 2048 1120 1741 
Q 1120 1440 1245 1200 
Q 1370 960 1587 825 
Q 1805 691 2093 691 
z
" transform="scale(0.015625)"/>
      <path id="PlusJakartaSans-Bold-1c0" d="M 1267 0 
L 70 3482 
L 954 3482 
L 1830 838 
L 1523 845 
L 2458 3482 
L 3200 3482 
L 4128 845 
L 3821 838 
L 4698 3482 
L 5581 3482 
L 4384 0 
L 3635 0 
L 2688 2758 
L 2970 2758 
L 2010 0 
L 1267 0 
z
" transform="scale(0.015625)"/>
     </defs>
     <use xlink:href="#PlusJakartaSans-Bold-66"/>
     <use xlink:href="#PlusJakartaSans-Bold-166" transform="translate(54.296875 0)"/>
     <use xlink:href="#PlusJakartaSans-Bold-1c0" transform="translate(118.5 0)"/>
    </g>
   </g>
   <g id="text_18">
    <!-- CD44-VFF expression and survival  (log-rank p=0.715) -->
    <g style="fill: #e6edf3" transform="translate(164.223405 18.618) scale(0.11 -0.11)">
     <defs>
      <path id="PlusJakartaSans-Regular-1d" d="M 2739 -77 
Q 2234 -77 1811 105 
Q 1389 288 1078 617 
Q 768 947 595 1395 
Q 422 1843 422 2381 
Q 422 2918 595 3366 
Q 768 3814 1078 4147 
Q 1389 4480 1811 4662 
Q 2234 4845 2739 4845 
Q 3226 4845 3613 4672 
Q 4000 4499 4265 4227 
Q 4531 3955 4646 3654 
L 4166 3443 
Q 3987 3859 3619 4112 
Q 3251 4365 2739 4365 
Q 2214 4365 1804 4115 
Q 1395 3866 1164 3421 
Q 934 2976 934 2381 
Q 934 1792 1164 1344 
Q 1395 896 1804 649 
Q 2214 403 2739 403 
Q 3251 403 3619 652 
Q 3987 902 4166 1318 
L 4646 1107 
Q 4531 813 4265 541 
Q 4000 269 3613 96 
Q 3226 -77 2739 -77 
z
" transform="scale(0.015625)"/>
      <path id="PlusJakartaSans-Regular-24" d="M 563 0 
L 563 4768 
L 2131 4768 
Q 2842 4768 3366 4477 
Q 3891 4186 4179 3651 
Q 4467 3117 4467 2387 
Q 4467 1664 4179 1126 
Q 3891 589 3366 294 
Q 2842 0 2131 0 
L 563 0 
z
M 1075 480 
L 2131 480 
Q 2682 480 3085 713 
Q 3488 947 3709 1376 
Q 3930 1805 3930 2387 
Q 3930 2970 3706 3395 
Q 3482 3821 3078 4054 
Q 2675 4288 2131 4288 
L 1075 4288 
L 1075 480 
z
" transform="scale(0.015625)"/>
      <path id="PlusJakartaSans-Regular-295" d="M 499 1363 
L 499 1843 
L 3379 1843 
L 3379 1363 
L 499 1363 
z
" transform="scale(0.015625)"/>
      <path id="PlusJakartaSans-Regular-d5" d="M 1818 0 
L 70 4768 
L 602 4768 
L 2138 454 
L 2035 454 
L 3565 4768 
L 4102 4768 
L 2355 0 
L 1818 0 
z
" transform="scale(0.015625)"/>
      <path id="PlusJakartaSans-Regular-44" d="M 563 0 
L 563 4768 
L 3507 4768 
L 3507 4288 
L 1075 4288 
L 1075 2630 
L 3315 2630 
L 3315 2150 
L 1075 2150 
L 1075 0 
L 563 0 
z
" transform="scale(0.015625)"/>
      <path id="PlusJakartaSans-Regular-1c5" d="M 70 0 
L 1274 1715 
L 77 3430 
L 666 3430 
L 1728 1888 
L 1402 1888 
L 2458 3430 
L 3046 3430 
L 1850 1715 
L 3046 0 
L 2458 0 
L 1402 1542 
L 1728 1542 
L 666 0 
L 70 0 
z
" transform="scale(0.015625)"/>
      <path id="PlusJakartaSans-Regular-10e" d="M 2042 -77 
Q 1562 -77 1178 156 
Q 794 390 573 796 
Q 352 1203 352 1715 
Q 352 2234 573 2637 
Q 794 3040 1174 3273 
Q 1555 3507 2042 3507 
Q 2483 3507 2828 3315 
Q 3174 3123 3373 2797 
L 3296 2662 
L 3296 4845 
L 3776 4845 
L 3776 0 
L 3296 0 
L 3296 768 
L 3373 698 
Q 3194 326 2838 124 
Q 2483 -77 2042 -77 
z
M 2067 403 
Q 2413 403 2691 576 
Q 2970 749 3133 1046 
Q 3296 1344 3296 1715 
Q 3296 2086 3133 2384 
Q 2970 2682 2691 2854 
Q 2413 3027 2067 3027 
Q 1728 3027 1453 2854 
Q 1178 2682 1021 2387 
Q 864 2093 864 1715 
Q 864 1344 1021 1046 
Q 1178 749 1450 576 
Q 1722 403 2067 403 
z
" transform="scale(0.015625)"/>
      <path id="PlusJakartaSans-Regular-12e" d="M 2118 -1408 
Q 1766 -1408 1468 -1299 
Q 1171 -1190 956 -1001 
Q 742 -813 627 -563 
L 1069 -326 
Q 1171 -570 1433 -749 
Q 1696 -928 2106 -928 
Q 2419 -928 2681 -806 
Q 2944 -685 3104 -448 
Q 3264 -211 3264 134 
L 3264 896 
L 3341 826 
Q 3162 454 2810 252 
Q 2458 51 2042 51 
Q 1562 51 1178 281 
Q 794 512 573 905 
Q 352 1299 352 1779 
Q 352 2266 573 2656 
Q 794 3046 1174 3276 
Q 1555 3507 2042 3507 
Q 2458 3507 2800 3315 
Q 3142 3123 3341 2797 
L 3264 2662 
L 3264 3430 
L 3744 3430 
L 3744 134 
Q 3744 -307 3536 -656 
Q 3328 -1005 2960 -1206 
Q 2592 -1408 2118 -1408 
z
M 2067 531 
Q 2400 531 2669 700 
Q 2938 870 3101 1155 
Q 3264 1440 3264 1779 
Q 3264 2118 3101 2403 
Q 2938 2688 2669 2857 
Q 2400 3027 2067 3027 
Q 1728 3027 1453 2857 
Q 1178 2688 1021 2406 
Q 864 2125 864 1779 
Q 864 1440 1021 1155 
Q 1178 870 1450 700 
Q 1722 531 2067 531 
z
" transform="scale(0.015625)"/>
      <path id="PlusJakartaSans-Regular-23f" d="M 474 1491 
L 474 1939 
L 2714 1939 
L 2714 1491 
L 474 1491 
z
" transform="scale(0.015625)"/>
      <path id="PlusJakartaSans-Regular-14e" d="M 493 0 
L 493 4845 
L 973 4845 
L 973 1453 
L 768 1485 
L 2694 3430 
L 3315 3430 
L 1971 2054 
L 3437 0 
L 2861 0 
L 1485 1901 
L 1792 1875 
L 813 864 
L 973 1261 
L 973 0 
L 493 0 
z
" transform="scale(0.015625)"/>
      <path id="PlusJakartaSans-Regular-298" d="M 499 2118 
L 499 2598 
L 3379 2598 
L 3379 2118 
L 499 2118 
z
M 499 614 
L 499 1094 
L 3379 1094 
L 3379 614 
L 499 614 
z
" transform="scale(0.015625)"/>
     </defs>
     <use xlink:href="#PlusJakartaSans-Regular-1d"/>
     <use xlink:href="#PlusJakartaSans-Regular-24" transform="translate(78.09375 0)"/>
     <use xlink:href="#PlusJakartaSans-Regular-1e3" transform="translate(152.296875 0)"/>
     <use xlink:href="#PlusJakartaSans-Regular-1e3" transform="translate(215.296875 0)"/>
     <use xlink:href="#PlusJakartaSans-Regular-295" transform="translate(278.296875 0)"/>
     <use xlink:href="#PlusJakartaSans-Regular-d5" transform="translate(338.890625 0)"/>
     <use xlink:href="#PlusJakartaSans-Regular-44" transform="translate(404.09375 0)"/>
     <use xlink:href="#PlusJakartaSans-Regular-44" transform="translate(462.1875 0)"/>
     <use xlink:href="#PlusJakartaSans-Regular-225" transform="translate(520.28125 0)"/>
     <use xlink:href="#PlusJakartaSans-Regular-115" transform="translate(537.28125 0)"/>
     <use xlink:href="#PlusJakartaSans-Regular-1c5" transform="translate(597.78125 0)"/>
     <use xlink:href="#PlusJakartaSans-Regular-189" transform="translate(646.484375 0)"/>
     <use xlink:href="#PlusJakartaSans-Regular-18c" transform="translate(713.1875 0)"/>
     <use xlink:href="#PlusJakartaSans-Regular-115" transform="translate(746.984375 0)"/>
     <use xlink:href="#PlusJakartaSans-Regular-194" transform="translate(808.484375 0)"/>
     <use xlink:href="#PlusJakartaSans-Regular-194" transform="translate(859.390625 0)"/>
     <use xlink:href="#PlusJakartaSans-Regular-13a" transform="translate(910.296875 0)"/>
     <use xlink:href="#PlusJakartaSans-Regular-166" transform="translate(933.203125 0)"/>
     <use xlink:href="#PlusJakartaSans-Regular-15c" transform="translate(998.703125 0)"/>
     <use xlink:href="#PlusJakartaSans-Regular-225" transform="translate(1056 0)"/>
     <use xlink:href="#PlusJakartaSans-Regular-eb" transform="translate(1073 0)"/>
     <use xlink:href="#PlusJakartaSans-Regular-15c" transform="translate(1130.203125 0)"/>
     <use xlink:href="#PlusJakartaSans-Regular-10e" transform="translate(1187.5 0)"/>
     <use xlink:href="#PlusJakartaSans-Regular-225" transform="translate(1254.203125 0)"/>
     <use xlink:href="#PlusJakartaSans-Regular-194" transform="translate(1271.203125 0)"/>
     <use xlink:href="#PlusJakartaSans-Regular-1a8" transform="translate(1322.109375 0)"/>
     <use xlink:href="#PlusJakartaSans-Regular-18c" transform="translate(1379.40625 0)"/>
     <use xlink:href="#PlusJakartaSans-Regular-1bf" transform="translate(1413.203125 0)"/>
     <use xlink:href="#PlusJakartaSans-Regular-13a" transform="translate(1464.90625 0)"/>
     <use xlink:href="#PlusJakartaSans-Regular-1bf" transform="translate(1487.8125 0)"/>
     <use xlink:href="#PlusJakartaSans-Regular-eb" transform="translate(1537.515625 0)"/>
     <use xlink:href="#PlusJakartaSans-Regular-151" transform="translate(1594.71875 0)"/>
     <use xlink:href="#PlusJakartaSans-Regular-225" transform="translate(1617.625 0)"/>
     <use xlink:href="#PlusJakartaSans-Regular-225" transform="translate(1634.625 0)"/>
     <use xlink:href="#PlusJakartaSans-Regular-248" transform="translate(1651.625 0)"/>
     <use xlink:href="#PlusJakartaSans-Regular-151" transform="translate(1681.125 0)"/>
     <use xlink:href="#PlusJakartaSans-Regular-166" transform="translate(1704.03125 0)"/>
     <use xlink:href="#PlusJakartaSans-Regular-12e" transform="translate(1769.53125 0)"/>
     <use xlink:href="#PlusJakartaSans-Regular-23f" transform="translate(1835.734375 0)"/>
     <use xlink:href="#PlusJakartaSans-Regular-18c" transform="translate(1885.53125 0)"/>
     <use xlink:href="#PlusJakartaSans-Regular-eb" transform="translate(1919.328125 0)"/>
     <use xlink:href="#PlusJakartaSans-Regular-15c" transform="translate(1976.53125 0)"/>
     <use xlink:href="#PlusJakartaSans-Regular-14e" transform="translate(2033.828125 0)"/>
     <use xlink:href="#PlusJakartaSans-Regular-225" transform="translate(2088.625 0)"/>
     <use xlink:href="#PlusJakartaSans-Regular-189" transform="translate(2105.625 0)"/>
     <use xlink:href="#PlusJakartaSans-Regular-298" transform="translate(2172.328125 0)"/>
     <use xlink:href="#PlusJakartaSans-Regular-1df" transform="translate(2232.921875 0)"/>
     <use xlink:href="#PlusJakartaSans-Regular-22f" transform="translate(2306.125 0)"/>
     <use xlink:href="#PlusJakartaSans-Regular-1e6" transform="translate(2334.71875 0)"/>
     <use xlink:href="#PlusJakartaSans-Regular-1e0" transform="translate(2389.015625 0)"/>
     <use xlink:href="#PlusJakartaSans-Regular-1e4" transform="translate(2426.109375 0)"/>
     <use xlink:href="#PlusJakartaSans-Regular-249" transform="translate(2487.703125 0)"/>
    </g>
   </g>
   <g id="legend_1">
    <g id="patch_7">
     <path d="M 471.482517 63.498 
L 548.071111 63.498 
Q 549.871111 63.498 549.871111 61.698 
L 549.871111 30.918 
Q 549.871111 29.118 548.071111 29.118 
L 471.482517 29.118 
Q 469.682517 29.118 469.682517 30.918 
L 469.682517 61.698 
Q 469.682517 63.498 471.482517 63.498 
z
" style="fill: #161b22; opacity: 0.8; stroke: #21262d; stroke-linejoin: miter"/>
    </g>
    <g id="line2d_29">
     <path d="M 473.282517 38.91 
L 482.282517 38.91 
L 482.282517 38.91 
L 491.282517 38.91 
L 491.282517 38.91 
" style="fill: none; stroke: #3987e5; stroke-width: 2; stroke-linecap: square"/>
    </g>
    <g id="text_19">
     <!-- High (n=87) -->
     <g style="fill: #e6edf3" transform="translate(498.482517 42.06) scale(0.09 -0.09)">
      <defs>
       <path id="PlusJakartaSans-Regular-4c" d="M 563 0 
L 563 4768 
L 1075 4768 
L 1075 2624 
L 3635 2624 
L 3635 4768 
L 4147 4768 
L 4147 0 
L 3635 0 
L 3635 2144 
L 1075 2144 
L 1075 0 
L 563 0 
z
" transform="scale(0.015625)"/>
      </defs>
      <use xlink:href="#PlusJakartaSans-Regular-4c"/>
      <use xlink:href="#PlusJakartaSans-Regular-13a" transform="translate(73.59375 0)"/>
      <use xlink:href="#PlusJakartaSans-Regular-12e" transform="translate(96.5 0)"/>
      <use xlink:href="#PlusJakartaSans-Regular-135" transform="translate(162.703125 0)"/>
      <use xlink:href="#PlusJakartaSans-Regular-225" transform="translate(220 0)"/>
      <use xlink:href="#PlusJakartaSans-Regular-248" transform="translate(237 0)"/>
      <use xlink:href="#PlusJakartaSans-Regular-15c" transform="translate(266.5 0)"/>
      <use xlink:href="#PlusJakartaSans-Regular-298" transform="translate(323.796875 0)"/>
      <use xlink:href="#PlusJakartaSans-Regular-1e7" transform="translate(384.390625 0)"/>
      <use xlink:href="#PlusJakartaSans-Regular-1e6" transform="translate(447.1875 0)"/>
      <use xlink:href="#PlusJakartaSans-Regular-249" transform="translate(501.484375 0)"/>
     </g>
    </g>
    <g id="line2d_30">
     <path d="M 473.282517 54.75 
L 482.282517 54.75 
L 482.282517 54.75 
L 491.282517 54.75 
L 491.282517 54.75 
" style="fill: none; stroke: #d95926; stroke-width: 2; stroke-linecap: square"/>
    </g>
    <g id="text_20">
     <!-- Low (n=27) -->
     <g style="fill: #e6edf3" transform="translate(498.482517 57.9) scale(0.09 -0.09)">
      <defs>
       <path id="PlusJakartaSans-Regular-66" d="M 563 0 
L 563 4768 
L 1075 4768 
L 1075 480 
L 3187 480 
L 3187 0 
L 563 0 
z
" transform="scale(0.015625)"/>
       <path id="PlusJakartaSans-Regular-1c0" d="M 1248 0 
L 70 3430 
L 614 3430 
L 1587 429 
L 1395 429 
L 2310 3430 
L 2790 3430 
L 3706 429 
L 3514 429 
L 4493 3430 
L 5030 3430 
L 3853 0 
L 3373 0 
L 2483 2938 
L 2618 2938 
L 1728 0 
L 1248 0 
z
" transform="scale(0.015625)"/>
      </defs>
      <use xlink:href="#PlusJakartaSans-Regular-66"/>
      <use xlink:href="#PlusJakartaSans-Regular-166" transform="translate(53.09375 0)"/>
      <use xlink:href="#PlusJakartaSans-Regular-1c0" transform="translate(117.59375 0)"/>
      <use xlink:href="#PlusJakartaSans-Regular-225" transform="translate(197.296875 0)"/>
      <use xlink:href="#PlusJakartaSans-Regular-248" transform="translate(214.296875 0)"/>
      <use xlink:href="#PlusJakartaSans-Regular-15c" transform="translate(243.796875 0)"/>
      <use xlink:href="#PlusJakartaSans-Regular-298" transform="translate(301.09375 0)"/>
      <use xlink:href="#PlusJakartaSans-Regular-1e1" transform="translate(361.6875 0)"/>
      <use xlink:href="#PlusJakartaSans-Regular-1e6" transform="translate(421.6875 0)"/>
      <use xlink:href="#PlusJakartaSans-Regular-249" transform="translate(475.984375 0)"/>
     </g>
    </g>
   </g>
  </g>
  <g id="axes_2">
   <g id="matplotlib.axis_3">
    <g id="xtick_9">
     <g id="text_21">
      <!-- High (n=87) -->
      <g style="fill: #8b949e" transform="translate(20.751563 169.61671) scale(0.1 -0.1)">
       <use xlink:href="#PlusJakartaSans-Regular-4c"/>
       <use xlink:href="#PlusJakartaSans-Regular-13a" transform="translate(73.59375 0)"/>
       <use xlink:href="#PlusJakartaSans-Regular-12e" transform="translate(96.5 0)"/>
       <use xlink:href="#PlusJakartaSans-Regular-135" transform="translate(162.703125 0)"/>
       <use xlink:href="#PlusJakartaSans-Regular-225" transform="translate(220 0)"/>
       <use xlink:href="#PlusJakartaSans-Regular-248" transform="translate(237 0)"/>
       <use xlink:href="#PlusJakartaSans-Regular-15c" transform="translate(266.5 0)"/>
       <use xlink:href="#PlusJakartaSans-Regular-298" transform="translate(323.796875 0)"/>
       <use xlink:href="#PlusJakartaSans-Regular-1e7" transform="translate(384.390625 0)"/>
       <use xlink:href="#PlusJakartaSans-Regular-1e6" transform="translate(447.1875 0)"/>
       <use xlink:href="#PlusJakartaSans-Regular-249" transform="translate(501.484375 0)"/>
      </g>
      <!--    At risk   87 -->
      <g style="fill: #8b949e" transform="translate(23.9 182.21671) scale(0.1 -0.1)">
       <defs>
        <path id="PlusJakartaSans-Regular-1" d="M 70 0 
L 1811 4768 
L 2362 4768 
L 4102 0 
L 3565 0 
L 3155 1165 
L 1024 1165 
L 608 0 
L 70 0 
z
M 1190 1645 
L 2976 1645 
L 2010 4384 
L 2163 4384 
L 1190 1645 
z
" transform="scale(0.015625)"/>
       </defs>
       <use xlink:href="#PlusJakartaSans-Regular-225"/>
       <use xlink:href="#PlusJakartaSans-Regular-225" transform="translate(17 0)"/>
       <use xlink:href="#PlusJakartaSans-Regular-225" transform="translate(34 0)"/>
       <use xlink:href="#PlusJakartaSans-Regular-1" transform="translate(51 0)"/>
       <use xlink:href="#PlusJakartaSans-Regular-1a0" transform="translate(113.203125 0)"/>
       <use xlink:href="#PlusJakartaSans-Regular-225" transform="translate(152 0)"/>
       <use xlink:href="#PlusJakartaSans-Regular-18c" transform="translate(169 0)"/>
       <use xlink:href="#PlusJakartaSans-Regular-13a" transform="translate(202.796875 0)"/>
       <use xlink:href="#PlusJakartaSans-Regular-194" transform="translate(225.703125 0)"/>
       <use xlink:href="#PlusJakartaSans-Regular-14e" transform="translate(276.609375 0)"/>
       <use xlink:href="#PlusJakartaSans-Regular-225" transform="translate(331.40625 0)"/>
       <use xlink:href="#PlusJakartaSans-Regular-225" transform="translate(348.40625 0)"/>
       <use xlink:href="#PlusJakartaSans-Regular-225" transform="translate(365.40625 0)"/>
       <use xlink:href="#PlusJakartaSans-Regular-1e7" transform="translate(382.40625 0)"/>
       <use xlink:href="#PlusJakartaSans-Regular-1e6" transform="translate(445.203125 0)"/>
      </g>
      <!--   Censored     0 -->
      <g style="fill: #8b949e" transform="translate(7.2 194.81671) scale(0.1 -0.1)">
       <use xlink:href="#PlusJakartaSans-Regular-225"/>
       <use xlink:href="#PlusJakartaSans-Regular-225" transform="translate(17 0)"/>
       <use xlink:href="#PlusJakartaSans-Regular-1d" transform="translate(34 0)"/>
       <use xlink:href="#PlusJakartaSans-Regular-115" transform="translate(111.09375 0)"/>
       <use xlink:href="#PlusJakartaSans-Regular-15c" transform="translate(172.59375 0)"/>
       <use xlink:href="#PlusJakartaSans-Regular-194" transform="translate(229.890625 0)"/>
       <use xlink:href="#PlusJakartaSans-Regular-166" transform="translate(280.796875 0)"/>
       <use xlink:href="#PlusJakartaSans-Regular-18c" transform="translate(346.296875 0)"/>
       <use xlink:href="#PlusJakartaSans-Regular-115" transform="translate(380.09375 0)"/>
       <use xlink:href="#PlusJakartaSans-Regular-10e" transform="translate(441.59375 0)"/>
       <use xlink:href="#PlusJakartaSans-Regular-225" transform="translate(508.296875 0)"/>
       <use xlink:href="#PlusJakartaSans-Regular-225" transform="translate(525.296875 0)"/>
       <use xlink:href="#PlusJakartaSans-Regular-225" transform="translate(542.296875 0)"/>
       <use xlink:href="#PlusJakartaSans-Regular-225" transform="translate(559.296875 0)"/>
       <use xlink:href="#PlusJakartaSans-Regular-225" transform="translate(576.296875 0)"/>
       <use xlink:href="#PlusJakartaSans-Regular-1df" transform="translate(593.296875 0)"/>
      </g>
      <!--     Events     0 -->
      <g style="fill: #8b949e" transform="translate(19.189063 207.41671) scale(0.1 -0.1)">
       <defs>
        <path id="PlusJakartaSans-Regular-2c" d="M 563 0 
L 563 4768 
L 3635 4768 
L 3635 4288 
L 1075 4288 
L 1075 2630 
L 3507 2630 
L 3507 2150 
L 1075 2150 
L 1075 480 
L 3635 480 
L 3635 0 
L 563 0 
z
" transform="scale(0.015625)"/>
       </defs>
       <use xlink:href="#PlusJakartaSans-Regular-225"/>
       <use xlink:href="#PlusJakartaSans-Regular-225" transform="translate(17 0)"/>
       <use xlink:href="#PlusJakartaSans-Regular-225" transform="translate(34 0)"/>
       <use xlink:href="#PlusJakartaSans-Regular-225" transform="translate(51 0)"/>
       <use xlink:href="#PlusJakartaSans-Regular-2c" transform="translate(68 0)"/>
       <use xlink:href="#PlusJakartaSans-Regular-1bf" transform="translate(129.203125 0)"/>
       <use xlink:href="#PlusJakartaSans-Regular-115" transform="translate(179.90625 0)"/>
       <use xlink:href="#PlusJakartaSans-Regular-15c" transform="translate(241.40625 0)"/>
       <use xlink:href="#PlusJakartaSans-Regular-1a0" transform="translate(298.703125 0)"/>
       <use xlink:href="#PlusJakartaSans-Regular-194" transform="translate(337.5 0)"/>
       <use xlink:href="#PlusJakartaSans-Regular-225" transform="translate(388.40625 0)"/>
       <use xlink:href="#PlusJakartaSans-Regular-225" transform="translate(405.40625 0)"/>
       <use xlink:href="#PlusJakartaSans-Regular-225" transform="translate(422.40625 0)"/>
       <use xlink:href="#PlusJakartaSans-Regular-225" transform="translate(439.40625 0)"/>
       <use xlink:href="#PlusJakartaSans-Regular-225" transform="translate(456.40625 0)"/>
       <use xlink:href="#PlusJakartaSans-Regular-1df" transform="translate(473.40625 0)"/>
      </g>
      <!--  -->
      <g style="fill: #8b949e" transform="translate(73.85 220.01671) scale(0.1 -0.1)"/>
      <!-- Low (n=27) -->
      <g style="fill: #8b949e" transform="translate(23.301563 232.61671) scale(0.1 -0.1)">
       <use xlink:href="#PlusJakartaSans-Regular-66"/>
       <use xlink:href="#PlusJakartaSans-Regular-166" transform="translate(53.09375 0)"/>
       <use xlink:href="#PlusJakartaSans-Regular-1c0" transform="translate(117.59375 0)"/>
       <use xlink:href="#PlusJakartaSans-Regular-225" transform="translate(197.296875 0)"/>
       <use xlink:href="#PlusJakartaSans-Regular-248" transform="translate(214.296875 0)"/>
       <use xlink:href="#PlusJakartaSans-Regular-15c" transform="translate(243.796875 0)"/>
       <use xlink:href="#PlusJakartaSans-Regular-298" transform="translate(301.09375 0)"/>
       <use xlink:href="#PlusJakartaSans-Regular-1e1" transform="translate(361.6875 0)"/>
       <use xlink:href="#PlusJakartaSans-Regular-1e6" transform="translate(421.6875 0)"/>
       <use xlink:href="#PlusJakartaSans-Regular-249" transform="translate(475.984375 0)"/>
      </g>
      <!--    At risk   27 -->
      <g style="fill: #8b949e" transform="translate(24.179688 245.21671) scale(0.1 -0.1)">
       <use xlink:href="#PlusJakartaSans-Regular-225"/>
       <use xlink:href="#PlusJakartaSans-Regular-225" transform="translate(17 0)"/>
       <use xlink:href="#PlusJakartaSans-Regular-225" transform="translate(34 0)"/>
       <use xlink:href="#PlusJakartaSans-Regular-1" transform="translate(51 0)"/>
       <use xlink:href="#PlusJakartaSans-Regular-1a0" transform="translate(113.203125 0)"/>
       <use xlink:href="#PlusJakartaSans-Regular-225" transform="translate(152 0)"/>
       <use xlink:href="#PlusJakartaSans-Regular-18c" transform="translate(169 0)"/>
       <use xlink:href="#PlusJakartaSans-Regular-13a" transform="translate(202.796875 0)"/>
       <use xlink:href="#PlusJakartaSans-Regular-194" transform="translate(225.703125 0)"/>
       <use xlink:href="#PlusJakartaSans-Regular-14e" transform="translate(276.609375 0)"/>
       <use xlink:href="#PlusJakartaSans-Regular-225" transform="translate(331.40625 0)"/>
       <use xlink:href="#PlusJakartaSans-Regular-225" transform="translate(348.40625 0)"/>
       <use xlink:href="#PlusJakartaSans-Regular-225" transform="translate(365.40625 0)"/>
       <use xlink:href="#PlusJakartaSans-Regular-1e1" transform="translate(382.40625 0)"/>
       <use xlink:href="#PlusJakartaSans-Regular-1e6" transform="translate(442.40625 0)"/>
      </g>
      <!--   Censored     0 -->
      <g style="fill: #8b949e" transform="translate(7.2 257.81671) scale(0.1 -0.1)">
       <use xlink:href="#PlusJakartaSans-Regular-225"/>
       <use xlink:href="#PlusJakartaSans-Regular-225" transform="translate(17 0)"/>
       <use xlink:href="#PlusJakartaSans-Regular-1d" transform="translate(34 0)"/>
       <use xlink:href="#PlusJakartaSans-Regular-115" transform="translate(111.09375 0)"/>
       <use xlink:href="#PlusJakartaSans-Regular-15c" transform="translate(172.59375 0)"/>
       <use xlink:href="#PlusJakartaSans-Regular-194" transform="translate(229.890625 0)"/>
       <use xlink:href="#PlusJakartaSans-Regular-166" transform="translate(280.796875 0)"/>
       <use xlink:href="#PlusJakartaSans-Regular-18c" transform="translate(346.296875 0)"/>
       <use xlink:href="#PlusJakartaSans-Regular-115" transform="translate(380.09375 0)"/>
       <use xlink:href="#PlusJakartaSans-Regular-10e" transform="translate(441.59375 0)"/>
       <use xlink:href="#PlusJakartaSans-Regular-225" transform="translate(508.296875 0)"/>
       <use xlink:href="#PlusJakartaSans-Regular-225" transform="translate(525.296875 0)"/>
       <use xlink:href="#PlusJakartaSans-Regular-225" transform="translate(542.296875 0)"/>
       <use xlink:href="#PlusJakartaSans-Regular-225" transform="translate(559.296875 0)"/>
       <use xlink:href="#PlusJakartaSans-Regular-225" transform="translate(576.296875 0)"/>
       <use xlink:href="#PlusJakartaSans-Regular-1df" transform="translate(593.296875 0)"/>
      </g>
      <!--     Events     0 -->
      <g style="fill: #8b949e" transform="translate(19.189063 270.41671) scale(0.1 -0.1)">
       <use xlink:href="#PlusJakartaSans-Regular-225"/>
       <use xlink:href="#PlusJakartaSans-Regular-225" transform="translate(17 0)"/>
       <use xlink:href="#PlusJakartaSans-Regular-225" transform="translate(34 0)"/>
       <use xlink:href="#PlusJakartaSans-Regular-225" transform="translate(51 0)"/>
       <use xlink:href="#PlusJakartaSans-Regular-2c" transform="translate(68 0)"/>
       <use xlink:href="#PlusJakartaSans-Regular-1bf" transform="translate(129.203125 0)"/>
       <use xlink:href="#PlusJakartaSans-Regular-115" transform="translate(179.90625 0)"/>
       <use xlink:href="#PlusJakartaSans-Regular-15c" transform="translate(241.40625 0)"/>
       <use xlink:href="#PlusJakartaSans-Regular-1a0" transform="translate(298.703125 0)"/>
       <use xlink:href="#PlusJakartaSans-Regular-194" transform="translate(337.5 0)"/>
       <use xlink:href="#PlusJakartaSans-Regular-225" transform="translate(388.40625 0)"/>
       <use xlink:href="#PlusJakartaSans-Regular-225" transform="translate(405.40625 0)"/>
       <use xlink:href="#PlusJakartaSans-Regular-225" transform="translate(422.40625 0)"/>
       <use xlink:href="#PlusJakartaSans-Regular-225" transform="translate(439.40625 0)"/>
       <use xlink:href="#PlusJakartaSans-Regular-225" transform="translate(456.40625 0)"/>
       <use xlink:href="#PlusJakartaSans-Regular-1df" transform="translate(473.40625 0)"/>
      </g>
      <!--  -->
      <g style="fill: #8b949e" transform="translate(73.85 283.01671) scale(0.1 -0.1)"/>
     </g>
    </g>
    <g id="xtick_10">
     <g id="text_22">
      <!--  -->
      <g style="fill: #8b949e" transform="translate(142.104565 169.61671) scale(0.1 -0.1)"/>
      <!-- 51 -->
      <g style="fill: #8b949e" transform="translate(132.235815 182.21671) scale(0.1 -0.1)">
       <use xlink:href="#PlusJakartaSans-Regular-1e4"/>
       <use xlink:href="#PlusJakartaSans-Regular-1e0" transform="translate(61.59375 0)"/>
      </g>
      <!-- 2 -->
      <g style="fill: #8b949e" transform="translate(136.104565 194.81671) scale(0.1 -0.1)">
       <use xlink:href="#PlusJakartaSans-Regular-1e1"/>
      </g>
      <!-- 34 -->
      <g style="fill: #8b949e" transform="translate(129.71394 207.41671) scale(0.1 -0.1)">
       <defs>
        <path id="PlusJakartaSans-Regular-1e2" d="M 1882 -77 
Q 1510 -77 1196 51 
Q 883 179 649 416 
Q 416 653 294 979 
L 704 1171 
Q 851 800 1164 585 
Q 1478 371 1882 371 
Q 2202 371 2451 496 
Q 2701 621 2841 857 
Q 2982 1094 2982 1434 
Q 2982 1773 2838 2009 
Q 2694 2246 2444 2368 
Q 2195 2490 1875 2490 
Q 1792 2490 1693 2483 
Q 1594 2477 1530 2464 
L 1427 2688 
L 2714 4320 
L 518 4320 
L 518 4768 
L 3290 4768 
L 3290 4320 
L 2086 2803 
L 2022 2886 
Q 2451 2874 2784 2685 
Q 3117 2496 3305 2176 
Q 3494 1856 3494 1434 
Q 3494 1011 3289 668 
Q 3085 326 2720 124 
Q 2355 -77 1882 -77 
z
" transform="scale(0.015625)"/>
       </defs>
       <use xlink:href="#PlusJakartaSans-Regular-1e2"/>
       <use xlink:href="#PlusJakartaSans-Regular-1e3" transform="translate(60.90625 0)"/>
      </g>
      <!--  -->
      <g style="fill: #8b949e" transform="translate(142.104565 220.01671) scale(0.1 -0.1)"/>
      <!--  -->
      <g style="fill: #8b949e" transform="translate(142.104565 232.61671) scale(0.1 -0.1)"/>
      <!-- 18 -->
      <g style="fill: #8b949e" transform="translate(132.115503 245.21671) scale(0.1 -0.1)">
       <use xlink:href="#PlusJakartaSans-Regular-1e0"/>
       <use xlink:href="#PlusJakartaSans-Regular-1e7" transform="translate(37.09375 0)"/>
      </g>
      <!-- 0 -->
      <g style="fill: #8b949e" transform="translate(134.784253 257.81671) scale(0.1 -0.1)">
       <use xlink:href="#PlusJakartaSans-Regular-1df"/>
      </g>
      <!-- 9 -->
      <g style="fill: #8b949e" transform="translate(136.134253 270.41671) scale(0.1 -0.1)">
       <defs>
        <path id="PlusJakartaSans-Regular-1e8" d="M 928 0 
L 2586 2170 
L 2682 2227 
Q 2586 2074 2458 1984 
Q 2330 1894 2176 1856 
Q 2022 1818 1837 1818 
Q 1421 1818 1088 2013 
Q 755 2208 560 2550 
Q 365 2893 365 3334 
Q 365 3770 566 4109 
Q 768 4448 1117 4646 
Q 1466 4845 1901 4845 
Q 2349 4845 2694 4643 
Q 3040 4442 3238 4086 
Q 3437 3731 3437 3270 
Q 3437 3014 3376 2764 
Q 3315 2515 3193 2272 
Q 3072 2029 2886 1786 
L 1542 0 
L 928 0 
z
M 1901 2278 
Q 2202 2278 2432 2416 
Q 2662 2554 2793 2794 
Q 2925 3034 2925 3334 
Q 2925 3642 2790 3882 
Q 2656 4122 2425 4259 
Q 2195 4397 1901 4397 
Q 1606 4397 1376 4259 
Q 1146 4122 1011 3882 
Q 877 3642 877 3334 
Q 877 3034 1008 2794 
Q 1139 2554 1372 2416 
Q 1606 2278 1901 2278 
z
" transform="scale(0.015625)"/>
       </defs>
       <use xlink:href="#PlusJakartaSans-Regular-1e8"/>
      </g>
     </g>
    </g>
    <g id="xtick_11">
     <g id="text_23">
      <!--  -->
      <g style="fill: #8b949e" transform="translate(210.359131 169.61671) scale(0.1 -0.1)"/>
      <!-- 26 -->
      <g style="fill: #8b949e" transform="translate(198.388818 182.21671) scale(0.1 -0.1)">
       <use xlink:href="#PlusJakartaSans-Regular-1e1"/>
       <use xlink:href="#PlusJakartaSans-Regular-1e5" transform="translate(60 0)"/>
      </g>
      <!-- 2 -->
      <g style="fill: #8b949e" transform="translate(204.359131 194.81671) scale(0.1 -0.1)">
       <use xlink:href="#PlusJakartaSans-Regular-1e1"/>
      </g>
      <!-- 59 -->
      <g style="fill: #8b949e" transform="translate(198.229443 207.41671) scale(0.1 -0.1)">
       <use xlink:href="#PlusJakartaSans-Regular-1e4"/>
       <use xlink:href="#PlusJakartaSans-Regular-1e8" transform="translate(61.59375 0)"/>
      </g>
      <!--  -->
      <g style="fill: #8b949e" transform="translate(210.359131 220.01671) scale(0.1 -0.1)"/>
      <!--  -->
      <g style="fill: #8b949e" transform="translate(210.359131 232.61671) scale(0.1 -0.1)"/>
      <!-- 9 -->
      <g style="fill: #8b949e" transform="translate(204.388818 245.21671) scale(0.1 -0.1)">
       <use xlink:href="#PlusJakartaSans-Regular-1e8"/>
      </g>
      <!-- 1 -->
      <g style="fill: #8b949e" transform="translate(206.649756 257.81671) scale(0.1 -0.1)">
       <use xlink:href="#PlusJakartaSans-Regular-1e0"/>
      </g>
      <!-- 17 -->
      <g style="fill: #8b949e" transform="translate(201.220068 270.41671) scale(0.1 -0.1)">
       <use xlink:href="#PlusJakartaSans-Regular-1e0"/>
       <use xlink:href="#PlusJakartaSans-Regular-1e6" transform="translate(37.09375 0)"/>
      </g>
     </g>
    </g>
    <g id="xtick_12">
     <g id="text_24">
      <!--  -->
      <g style="fill: #8b949e" transform="translate(278.613696 169.61671) scale(0.1 -0.1)"/>
      <!-- 15 -->
      <g style="fill: #8b949e" transform="translate(268.744946 182.21671) scale(0.1 -0.1)">
       <use xlink:href="#PlusJakartaSans-Regular-1e0"/>
       <use xlink:href="#PlusJakartaSans-Regular-1e4" transform="translate(37.09375 0)"/>
      </g>
      <!-- 8 -->
      <g style="fill: #8b949e" transform="translate(272.334009 194.81671) scale(0.1 -0.1)">
       <use xlink:href="#PlusJakartaSans-Regular-1e7"/>
      </g>
      <!-- 64 -->
      <g style="fill: #8b949e" transform="translate(266.343384 207.41671) scale(0.1 -0.1)">
       <use xlink:href="#PlusJakartaSans-Regular-1e5"/>
       <use xlink:href="#PlusJakartaSans-Regular-1e3" transform="translate(59.703125 0)"/>
      </g>
      <!--  -->
      <g style="fill: #8b949e" transform="translate(278.613696 220.01671) scale(0.1 -0.1)"/>
      <!--  -->
      <g style="fill: #8b949e" transform="translate(278.613696 232.61671) scale(0.1 -0.1)"/>
      <!-- 5 -->
      <g style="fill: #8b949e" transform="translate(272.454321 245.21671) scale(0.1 -0.1)">
       <use xlink:href="#PlusJakartaSans-Regular-1e4"/>
      </g>
      <!-- 2 -->
      <g style="fill: #8b949e" transform="translate(272.613696 257.81671) scale(0.1 -0.1)">
       <use xlink:href="#PlusJakartaSans-Regular-1e1"/>
      </g>
      <!-- 20 -->
      <g style="fill: #8b949e" transform="translate(265.293384 270.41671) scale(0.1 -0.1)">
       <use xlink:href="#PlusJakartaSans-Regular-1e1"/>
       <use xlink:href="#PlusJakartaSans-Regular-1df" transform="translate(60 0)"/>
      </g>
     </g>
    </g>
    <g id="xtick_13">
     <g id="text_25">
      <!--  -->
      <g style="fill: #8b949e" transform="translate(346.868262 169.61671) scale(0.1 -0.1)"/>
      <!-- 7 -->
      <g style="fill: #8b949e" transform="translate(341.438574 182.21671) scale(0.1 -0.1)">
       <use xlink:href="#PlusJakartaSans-Regular-1e6"/>
      </g>
      <!-- 14 -->
      <g style="fill: #8b949e" transform="translate(336.858887 194.81671) scale(0.1 -0.1)">
       <use xlink:href="#PlusJakartaSans-Regular-1e0"/>
       <use xlink:href="#PlusJakartaSans-Regular-1e3" transform="translate(37.09375 0)"/>
      </g>
      <!-- 66 -->
      <g style="fill: #8b949e" transform="translate(334.927637 207.41671) scale(0.1 -0.1)">
       <use xlink:href="#PlusJakartaSans-Regular-1e5"/>
       <use xlink:href="#PlusJakartaSans-Regular-1e5" transform="translate(59.703125 0)"/>
      </g>
      <!--  -->
      <g style="fill: #8b949e" transform="translate(346.868262 220.01671) scale(0.1 -0.1)"/>
      <!--  -->
      <g style="fill: #8b949e" transform="translate(346.868262 232.61671) scale(0.1 -0.1)"/>
      <!-- 1 -->
      <g style="fill: #8b949e" transform="translate(343.158887 245.21671) scale(0.1 -0.1)">
       <use xlink:href="#PlusJakartaSans-Regular-1e0"/>
      </g>
      <!-- 6 -->
      <g style="fill: #8b949e" transform="translate(340.897949 257.81671) scale(0.1 -0.1)">
       <use xlink:href="#PlusJakartaSans-Regular-1e5"/>
      </g>
      <!-- 20 -->
      <g style="fill: #8b949e" transform="translate(333.547949 270.41671) scale(0.1 -0.1)">
       <use xlink:href="#PlusJakartaSans-Regular-1e1"/>
       <use xlink:href="#PlusJakartaSans-Regular-1df" transform="translate(60 0)"/>
      </g>
     </g>
    </g>
    <g id="xtick_14">
     <g id="text_26">
      <!--  -->
      <g style="fill: #8b949e" transform="translate(415.122827 169.61671) scale(0.1 -0.1)"/>
      <!-- 4 -->
      <g style="fill: #8b949e" transform="translate(408.822827 182.21671) scale(0.1 -0.1)">
       <use xlink:href="#PlusJakartaSans-Regular-1e3"/>
      </g>
      <!-- 17 -->
      <g style="fill: #8b949e" transform="translate(405.983765 194.81671) scale(0.1 -0.1)">
       <use xlink:href="#PlusJakartaSans-Regular-1e0"/>
       <use xlink:href="#PlusJakartaSans-Regular-1e6" transform="translate(37.09375 0)"/>
      </g>
      <!-- 66 -->
      <g style="fill: #8b949e" transform="translate(403.182202 207.41671) scale(0.1 -0.1)">
       <use xlink:href="#PlusJakartaSans-Regular-1e5"/>
       <use xlink:href="#PlusJakartaSans-Regular-1e5" transform="translate(59.703125 0)"/>
      </g>
      <!--  -->
      <g style="fill: #8b949e" transform="translate(415.122827 220.01671) scale(0.1 -0.1)"/>
      <!--  -->
      <g style="fill: #8b949e" transform="translate(415.122827 232.61671) scale(0.1 -0.1)"/>
      <!-- 0 -->
      <g style="fill: #8b949e" transform="translate(407.802515 245.21671) scale(0.1 -0.1)">
       <use xlink:href="#PlusJakartaSans-Regular-1df"/>
      </g>
      <!-- 7 -->
      <g style="fill: #8b949e" transform="translate(409.69314 257.81671) scale(0.1 -0.1)">
       <use xlink:href="#PlusJakartaSans-Regular-1e6"/>
      </g>
      <!-- 20 -->
      <g style="fill: #8b949e" transform="translate(401.802515 270.41671) scale(0.1 -0.1)">
       <use xlink:href="#PlusJakartaSans-Regular-1e1"/>
       <use xlink:href="#PlusJakartaSans-Regular-1df" transform="translate(60 0)"/>
      </g>
     </g>
    </g>
    <g id="xtick_15">
     <g id="text_27">
      <!--  -->
      <g style="fill: #8b949e" transform="translate(483.377393 169.61671) scale(0.1 -0.1)"/>
      <!-- 2 -->
      <g style="fill: #8b949e" transform="translate(477.377393 182.21671) scale(0.1 -0.1)">
       <use xlink:href="#PlusJakartaSans-Regular-1e1"/>
      </g>
      <!-- 19 -->
      <g style="fill: #8b949e" transform="translate(473.697705 194.81671) scale(0.1 -0.1)">
       <use xlink:href="#PlusJakartaSans-Regular-1e0"/>
       <use xlink:href="#PlusJakartaSans-Regular-1e8" transform="translate(37.09375 0)"/>
      </g>
      <!-- 66 -->
      <g style="fill: #8b949e" transform="translate(471.436768 207.41671) scale(0.1 -0.1)">
       <use xlink:href="#PlusJakartaSans-Regular-1e5"/>
       <use xlink:href="#PlusJakartaSans-Regular-1e5" transform="translate(59.703125 0)"/>
      </g>
      <!--  -->
      <g style="fill: #8b949e" transform="translate(483.377393 220.01671) scale(0.1 -0.1)"/>
      <!--  -->
      <g style="fill: #8b949e" transform="translate(483.377393 232.61671) scale(0.1 -0.1)"/>
      <!-- 0 -->
      <g style="fill: #8b949e" transform="translate(476.05708 245.21671) scale(0.1 -0.1)">
       <use xlink:href="#PlusJakartaSans-Regular-1df"/>
      </g>
      <!-- 7 -->
      <g style="fill: #8b949e" transform="translate(477.947705 257.81671) scale(0.1 -0.1)">
       <use xlink:href="#PlusJakartaSans-Regular-1e6"/>
      </g>
      <!-- 20 -->
      <g style="fill: #8b949e" transform="translate(470.05708 270.41671) scale(0.1 -0.1)">
       <use xlink:href="#PlusJakartaSans-Regular-1e1"/>
       <use xlink:href="#PlusJakartaSans-Regular-1df" transform="translate(60 0)"/>
      </g>
     </g>
    </g>
    <g id="xtick_16">
     <g id="text_28">
      <!--  -->
      <g style="fill: #8b949e" transform="translate(551.631958 169.61671) scale(0.1 -0.1)"/>
      <!-- 0 -->
      <g style="fill: #8b949e" transform="translate(544.311646 182.21671) scale(0.1 -0.1)">
       <use xlink:href="#PlusJakartaSans-Regular-1df"/>
      </g>
      <!-- 21 -->
      <g style="fill: #8b949e" transform="translate(541.922583 194.81671) scale(0.1 -0.1)">
       <use xlink:href="#PlusJakartaSans-Regular-1e1"/>
       <use xlink:href="#PlusJakartaSans-Regular-1e0" transform="translate(60 0)"/>
      </g>
      <!-- 66 -->
      <g style="fill: #8b949e" transform="translate(539.691333 207.41671) scale(0.1 -0.1)">
       <use xlink:href="#PlusJakartaSans-Regular-1e5"/>
       <use xlink:href="#PlusJakartaSans-Regular-1e5" transform="translate(59.703125 0)"/>
      </g>
      <!--  -->
      <g style="fill: #8b949e" transform="translate(551.631958 220.01671) scale(0.1 -0.1)"/>
      <!--  -->
      <g style="fill: #8b949e" transform="translate(551.631958 232.61671) scale(0.1 -0.1)"/>
      <!-- 0 -->
      <g style="fill: #8b949e" transform="translate(544.311646 245.21671) scale(0.1 -0.1)">
       <use xlink:href="#PlusJakartaSans-Regular-1df"/>
      </g>
      <!-- 7 -->
      <g style="fill: #8b949e" transform="translate(546.202271 257.81671) scale(0.1 -0.1)">
       <use xlink:href="#PlusJakartaSans-Regular-1e6"/>
      </g>
      <!-- 20 -->
      <g style="fill: #8b949e" transform="translate(538.311646 270.41671) scale(0.1 -0.1)">
       <use xlink:href="#PlusJakartaSans-Regular-1e1"/>
       <use xlink:href="#PlusJakartaSans-Regular-1df" transform="translate(60 0)"/>
      </g>
     </g>
    </g>
   </g>
  </g>
 </g>
 <defs>
  <clipPath id="p4adbb479b5">
   <rect x="50.968042" y="24.618" width="503.403068" height="108.782"/>
  </clipPath>
 </defs>
</svg>
